P1
# Created by GIMP version 2.10.34 PNM plug-in
100 100
0000000000000000000000000000000000000000000000000000000000000000000000
0000000000000000000000000000000000000000000000000000000000000000000000
0000000000000000000000000000000000000000000000000000000000000000000000
0000000000000000000000000000000000000000000000000000000000000000000000
0000000000000000000000000000000000000000000000000000000000000000000000
0000000000000000000000000000000000000000000000000000000000000000000000
0000000000000000000000000000000000000000000000000000000000000000000000
0000000000000000000000000000000000000000000000000000000000000000000000
0000000000000000000000000000000000000000000000000000000000000000000000
0000000000000000000000000000000000000000000000000000000000000000000000
0000000000000000000000000000000000000000000000000000000000000000000000
0000000000000000000000000000000000000000000000000000000000000000000000
0000000000000000000000000000000000000000000000000000000000000000000000
0000000000000000000000000000000000000000000000000000000000000000000000
0000000000000000000000000000000000000000000000000000000000000000000000
0000000000000000000000000000000000000000000000000000000000000000000000
0000000000000000000000000000000000000000000000000000000000000000000000
0000000000000000000000000000000000000000000000000000000000000000000000
0000000000000000000000000000000000000000000000000000000000000000000000
0000000000000000000000000000000000000000000000000000000000000000000000
0000000000000000000000000000000000000000000000000000000000000000000000
0000000000000000000000000000000000000000000000000000000000000000000000
0000000000000000000000000000000000000000000000000000000000000000000000
0000000000000000000000000000000000000000000000000000000000000000000000
0000000000000000000000000000000000000000000000000000000000000000000000
0000000000000000000000000000000000000000000000000000000000000000000000
0000000000000000000000000000000000000000000000000000000000000000000000
0000000000000000000000000000000000000000000000000000000000000000000000
0000000000000000000000000000000000000000000000000000000000000000000000
0000000000000000000000000000000000000000000000000000000000000000000000
0000000000000000000000000000000000000000000000000000000000000000000000
0000000000000000000000000000000000000000000000000000000000000000000000
0000000000000000000000000000000000000000000000000000000000000000000000
0000000000000000000000000000000000000000000000000000000000000000000000
0000000000000000000000000000000000000000000000000000000000000000000000
0000000000000000000000000000000000000000000000000000000000000000000000
0000000000000000000000000000000000000000000000000000000000000000000000
0000000000000000000000000000000000000000000000000000000000000000000000
0000000000000000000000000000000000000000000000000000000000000000000000
0000000000000000000000000000000000000000000000000000000000000000000000
0000000000000000000000000000000000000000000000000000000000000000000000
0000000000000000000000000000000000000000000000000000000000000000000000
0000000000000000000000000000000000000000000000000000000000000000000000
0000000000000001111100000000000000000000000000000000000000000000000000
0000000000000000000000000000000000000000001111111111110000000000000000
0000000000000000000000000000000000000000000000000000000000000000000000
0111111111111110000000000000000000000000000000000000000000000000000000
0000000000000000000000000000011111111111111111100000000000000000000000
0000000000000000000000000000000000000000000000000000000000111111111111
1111111000000000000000000000000000000000000000000000000000000000000000
0000000000000000001111111111111111111100000000000000000000000000000000
0000000000000000000000000000000000000000000000011111111111111111111110
0000000000000000000000000000000000000000000000000000000000000000000000
0000000111111111111111111111100000000000000000000000000000000000000000
0000000000000000000000000000000000001111111111111111111111110000000000
0000000000000000000000000000000000000000000000000000000000000000001111
1111111111111111111100000000000000011111111111111111111111111100000000
0000000000000000000000000011111111111111111111111100000000000000011111
1111111111111111111111000000000000000000000000000000000011111111111111
1111111111000000000000000111111111111111111111111111000000000000000000
0000000000000000011111111111111111111110000000000000000111111111111111
1111111111110000000000000000000000000000000000011111111111111111111110
0000000000000001111111111111111111111111110000000000000000000000000000
0000000011111111111111111111000000000000000001111111111111111111111111
1100000000000000000000000000000000000011111111111111111111000000000000
0000011111111111111111111111111100000000000000000000000000000000000000
1111111111111111100000000000000000011111111111111111111111111100000000
0000000000000000000000000000000111111111111110000000000000000000011111
1111111111111111111111000000000000000000000000000000000000000011111111
1111000000000000000000000111111111100011111111111111000000000000000000
0000000000000000000000000011111000000000000000000000000111111111000001
1111111111110000000000000000000000000000000000000000000000000000000000
0000000000000001111111110000011111111111110000000000000000000000000000
0000000000000000000000000000000000000000000001111111110000011111111111
1100000000000000000000000000000000000000000000000000000000000000000000
0000011111111100000111111111111100000000000000000000000000000000000000
0000000000000000000000000000000000011111111110001111111111111100000000
0000000000000000000000000000000000000000000000000000000000000000011111
1111111111111111111111000000000000000000000000000000000000000000000000
0000000000000000000000000111111111111111111111111111000000000000000000
0000000000000000000000000000000000000000000000000000000111111111111111
1111111111110000000000000000000000000000000000000000000000000000000000
0000000000000001111111111111111111111111110000000000000000000000000000
0000000000000000000000000000000000000000000001111111111111111111111111
1100000000000000000000000000000000000000000000000000000000000000000000
0000011111111111111111111111111100000000000000000000000000000000000000
0000000000001110100000000000000000011111111111111111111111111100000000
0000000000000000000000000000000000000001111111111000000000000000011111
1111111111111111111111000000000000000000000000000000000000000000000011
1111111111000000000000000111111111111111111111111111000000000000000000
0000000000000000000000000001111111111111100000000000000111111111111111
1111111111110000000000000000000000000000000000000000000011111111111111
1100000000000000000000000000000000000000000000000000000000000000000000
0000000000000000111111111111111100000000000000000000000000000000000000
0000000000000000000000000000000000000000000001111111111111111110000000
0000000000000000000000000000000000000000000000000000000000000000000000
0000011111110001111111100000000000000000000000000000000000000000000000
0000000000000000000000000000000000111111110001111111110000000000000000
0000000000000000000000000000000000000000000000000000000000000000111111
1100011111111100000000000000000000000000000000000000000000000000000000
0000000000000000000000001111111100011111111100000000000000000000000000
0000000000000000000000000000000000000000000000000000001111111100011111
1111000000000000000000000000000000000000000000000000000000000000000000
0000000000000001111111111111111110000000000000000000000000000000000000
0000000000000000000000000000000000000000000001111111111111111110000000
0000000000000000000000000000000000000000000000000000000000000000000000
0000011111111111111111100000000000000000000000000000000000000000000000
0000000000000000000000000000000000001111111111111111100000000000001111
1111111111111111111111111100000000000000000000000000000000000000001111
1111111111110000000000000011111111111111111111111111111100000000000000
0000000000000000000000000001111111111111100000000000000011111111111111
1111111111111111000000000000000000000000000000000000000000111111111111
0000000000000000111111111111111111111111111111000000000000000000000000
0000000000000000000111111111100000000000000000111111111111111111111111
1111110000000000000000000000000000000000000000000000111010000000000000
0000001111111111111111111111111111110000000000000000000000000000000000
0000000000000000000000000000000000001111111111111111000011111111110000
0000000000000000000000000000000000000000000000000000000000000000001111
1111111111100000011111111100000000000000000000000000000000000000000000
0000000000000000000000000011111111111111100000011111111100000000000000
0000000000000000000000000000000000000000000000000000000011111111111111
1000000111111111000000000000000000000000000000000000000000000000000000
0000000000000000111111111111111100001111111111000000000000000000000000
0000000000000000000000000000000000000000000000111111111111111111111111
1111110000000000000000000000000000000000000000000000000000000000000000
0000001111111111111111111111111111110000000000000000000000000000000000
0000000000000000000000000000000000001111111111111111111111111111110000
0000000000000000000000000000000000000000000000000000000000000000001111
1111111111111111111111111100000000000000000000000000000000000000000000
0000000000000000000000000000000000000000000000000000000000000000000000
0000000000000000000000000000000000000000000000000000000000000000000000
0000000000000000000000000000000000000000000000000000000000000000000000
0000000000000000000000000000000000000000000000000000000000000000000000
0000000000000000000000000000000000000000000000000000000000000000000000
0000000000000000000000000000000000000000000000000000000000000000000000
0000000000000000000000000000000000000000000000000000000000000000000000
0000000000000000000000000000000000000000000000000000000000000000000000
0000000000000000000000000000000000000000000000000000000000000000000000
0000000000000000000000000000000000000000000000000000000000000000000000
0000000000000000000000000000000000000000000000000000000000000000000000
0000000000000000000000000000000000000000000000000000000000000000000000
0000000000000000000000000000000000000000000000000000000000000000000000
000000000000000000000000000000000000000000000000000000000000