P1
# Created by GIMP version 2.10.34 PNM plug-in
120 136
0000000000000000000000000000000000000000000000000000000000000000000000
0000000000000000000000000000000000000000000000000000000000000000000000
0000000000000000000000000000000000000000000000000000000000000000000000
0000000000000000000000000000000001000000000000000000000000000000000000
0000000000000000000000000000000000000000000000000000000000000000000000
0000000010000100000000000000000000000000000000000000000000000000000000
0000000000000000000000000000000000000000000000000000000001000001100000
0000000000000000000000000000000000000000000000000000000000000000000000
0000000000000000000000000000000000000100000011000000000000000000000000
0000000001000000000000000000000000000000000000000000000000000000000000
0000000000000000110000001110000000000000000000000000000000001000000000
0000000000000000000000000000000100000000000000000000000000000000011100
0000111100000000000000000000000000000000100000000000000000000000000000
0000000000110000000000000000000000000000000011110000001111000000000000
0000000000000000000011000000000000000000000000000000000000001100000000
0000000000000000000000011111000000111110000000000000000000000000000000
1110000000000000000000000000000000000001110000000000000000000000000000
0001111000000011111100000000000000000000000000000011110000000000000000
0000000000000000001110000000000000000000000000000000111111000000011111
1000000000000000000000000000000111100000000000000000000000000000000111
1000000000000000000000000000000111111000000001111111000000000000000000
0000000000011110000000000000000000000000000000111110000000000000000000
0000000000111111100000000111111110000000000000000000000000000111110000
0000000000000000000000000011111000000000000000000000000000011111111000
0000011111111000000000000000000000000000011111100000000000000000000000
0000011111100000000000000000000000000011111111100000000111111111000000
0000000000000000000001111111000000000000000000000000001111110000000000
0000000000000000001111111100000000011111111110000000000000000000000000
0011111110000000000000000000000001111111000000000000000000000000000111
1111111000000000111111111100000000000000000000000000111111110000000000
0000000000001111111100000000000000000000000000111111111100000000001111
1111111000000000000000000000000011111111000000000000000000000111111111
0000000000000000000000000111111111110000000000111111111111000000000000
0000000000001111111110000000000000000000011111111100000000000000000000
0000111111111111000000000011111111111100000000000000000000000011111111
1100000000000000000011111111100000000000000000000000011111111111110000
0000001111111111111000000000000000000000000111111111100000000000000001
1111111110000000000000000000000001111111111111000000000011111111111111
1000000000000000000000011111111111000000000000001111111111100000000000
0000000000111111111111111000000000000111111111111111111000000000000000
0001111111111111111111111111111111111110000000000000000001111111111111
1111100000000000011111111111111111111100000000000000011111111111111111
1111111111111111111000000000000001111111111111111111111000000000000111
1111111111111111111111000000000001111111111111111111111111111111111100
0000000000111111111111111111111111100000000000011111111111111111111111
1111100000000011111111111111111111111111111111110000000011111111111111
1111111111111110000000000001111111111111111111111111111111000000111111
1111111111111111111111111111000000111111111111111111111111111111000000
0000000111111111111111111111111111111100000011111111111111111111111111
1111111100000111111111111111111111111111111110000000000000111111111111
1111111111111111110000001111111111111111111111111111111111000001111111
1111111111111111111111110000000000000011111111111111111111111111111110
0000111111111111111111111111111111111000000111111111111111111111111111
1111000000000000001111111111111111111111111111111000001111111111111111
1111111111111111100000011111111111111111111111111111110000000000000011
1111111111111111111111111111100000011111111111001001010111111111111000
0001111111111111111111111111111111000000000000001111111111110111111111
1111111110000001111111111100000000001111111111100000011111111111111111
0111111111111100000000000000111111111111000001111111111111110000011111
1111111000000001111111111110000011111111111111100000111111111110000000
0000000001111111111100000000011111111111000001111111111110000000011111
1111110000001111111111100000000111111111111000000000000000011111111111
1000000000001111111100000111111111111000000001111111111100000011111111
0000000000011111111111100000000000000001111111111110000000000000001111
0000001111111111100000001111111111110000001111000000000000000111111111
1110000000000000000111111111111000000000000000000100000011111111111100
0000111111111111000001000000000000000000111111111111100000000000000001
1111111111111110000000000000000000001111111111110000001111111111110000
0000000000000000011111111111111110000000000000000111111111111111111100
0000000000000000111111111111000001111111111110000000000000000001111111
1111111111110000000000000000001111111111111111111111000000000000001111
1111111110000111111111111000000000000000111111111111111111111100000000
0000000000111111111111111111111111100000000000011111111111100001111111
1111100000000000111111111111111111111111110000000000000000001111111111
1111111111111111111000000001111111111110000111111111111000000001111111
1111111111111111111111000000000000000000111111111111111111111111111111
1000000111111111111100111111111111100000111111111111111111111111111111
1100000000000000000011111111111111111111111111111111000001111111111111
0011111111111110000011111111111111111111111111111111000000000000000000
1111111111110011111111111111111100000111111111111101111111111111000000
1111111111111111100111111111111000000000000000000001111111111100000011
1111111111110000001111111111110111111111111100000011111111111111000000
1111111111100000000000000000000111111111110000000001111111111100000011
1111111111111111111111110000001111111111000000000111111111111000000000
0000000000011111111111100000000000011111110000001111111111111111111111
1111000001111111100000000000011111111111100000000000000000000111111111
1110000000000000000111100000111111111111111111111111110000011110000000
0000000001111111111110000000000000000000011111111111111000000000000000
0000000011111111111111111111111110000000000000000000000000111111111111
1000000000000000000000111111111111111100000000000000000000011111111111
1111111111111000000000000000000000111111111111111100000000000000000000
0011111111111111111111000000000000000000111111111111111111111100000000
0000000000111111111111111111100000000000000000000000011111111111111111
1111100000000000000001111111111111111111100000000000000001111111111111
1111111110000000000000000000000001111111111111111111111111100000000000
0111111111111111111100000000000001111111111111111111111111000000000000
0000000000000011111111111111111111111111110000000000111111111111111110
0000000001111111111111111111111111111100000000000000000000000000011111
1111111111111111111111111100000001111111111111111000000011111111111111
1111111111111111100000000000000000000000000001111111111111111111111111
1111111100000011111111111111000001111111111111111111111111111111110000
0000000000000000000000000011111111111111111111111111111111100000011111
1111111000000111111111111111111111111111111111000000000000000000000000
0000000111111111011111111111111111111111000000111111111100000011111111
1111111111111101111111111000000000000000000000000000000001111111110000
0111111111111111111110000001111111100000011111111111111111111000001111
1111100000000000000000000000000010000011111111100000001111111111111111
1100000111111100000011111111111111111000000011111111110000000000000000
0000000000001000001111111111000000000011111111111111100000111111000001
1111111111111100000000001111111110000010000000000000000000000001000001
1111111110000000000001111111111110000001111000001111111111110000000000
0001111111111000001000000000000000000000000110000011111111110000000000
0000011111111100000011000000111111111000000000000000111111111100000110
0000000000000000000000011000001111111111100000000000000011111111100000
0000000111111111000000000000000111111111100000011000000000000000000000
0001110000011111111110000000000000001111111111000000000011111111100000
0000000000111111111110000011100000000000000000000000011100000111111111
1100000000000000011111111110000000011111111110000000000000001111111111
0000011100000000000000000000000000111000001111111111100000000000000111
1111111100000011111111110000000000000011111111111100000111000000000000
0000000000000011110000011111111111000000000000001111111111000001111111
1111000000000000001111111111100000111100000000000000000000000000111100
0001111111111111000000000000111111111110000111111111100000000000001111
1111111100000111110000000000000000000000000011111000001111111111111000
0000000001111111111101111111111110000000000011111111111111000001111100
0000000000000000000000001111110000011111111111111000000000011111111111
1111111111110000000000011111111111111000001111110000000000000000000000
0000111111000001111111111111111000000000111111111111111111111100000000
0111111111111111100000111110000000000000000000000000001111111000001111
1111111111110000000011111111111111111111100000000011111111111111110000
0111111000000000000000000000000000011111100000111111111111111111000000
0111111111111111111110000000111111111111111110000011111110000000000000
0000000000000001111111000001111111111111111111000001111111111111111111
0000001111111111111111111000001111111000000000000000000000000000011111
1110000011111111111111111110000011111111111111111100000111111111111111
1111000001111111100000000000000000000000000001111111100000111111111111
1111111110001111111111111111100001111111111111111111100000011111111000
0000000000000000000000000111111111000001111111111111111111110001111111
1111111110011111111111111111111110000011111111000000000000000000000000
0000011111111110000011111111111111111111110111111111111111101111111111
1111111111110000011111111100000000000000000000000000000011111111100000
1111111111111111111111111111111111111111111111111111111111111100000111
1111110000000000000000000000000000001111111111000001111111111111111111
1111111111111111111111111111111111111111100000111111111100000000000000
0000000000000000111111111100000111111111111111111111111111111111111111
1111111111111111111100000111111111110000000000000000000000000000001111
1111111000001111111111111111111111111111111111111111111111111111111111
0000011111111111000000000000000000000000000000111111111111000001111111
1111111111111111111111111111111111111111111111111000001111111111110000
0000000000000000000000000011111111111100000111111111111111111111111111
1111111111111111111111111111000000111111111110000000000000000000000000
0000000111111111111000001111111111111111111111111111111111111111111111
1111111100000111111111111000000000000000000000000000000001111111111110
0000111111111111111111111111111111111111111111111111111110000011111111
1111100000000000000000000000000000000111111111111100000111111111111111
1111111111111111111111111111111111111000001111111111111000000000000000
0000000000000000011111111111111000001111111111111111111111111111111111
1111111111111111000001111111111111100000000000000000000000000000000111
1111111111100000111111111111111111111111111111111111111111111111100000
1111111111111110000000000000000000000000000000011111111111111100000111
1111111111111111111111111111111111111111111110000011111111111111000000
0000000000000000000000000001111111111111111000001111111111111111111111
1111111111111111111111110000011111111111111100000000000000000000000000
0000000011111111111111100000111111111111111111111111111111111111111111
1111000001111111111111110000000000000000000000000000000000111111111111
1111000001111111111111111111111111111111111111111111100000111111111111
1111000000000000000000000000000000000011111111111111110000011111111111
1111111111111111111111111111111100000111111111111111110000000000000000
0000000000000000001111111111111111100000111111111111111111111111111111
1111111111110000011111111111111111000000000000000000000000000000000011
1111111111111111000001111111111111111111111111111111111111111000001111
1111111111111100000000000000000000000000000000001111111111111111110000
0111111111111111111111111111111111111111000000111111111111111110000000
0000000000000000000000000000011111111111111111100000111111111111111111
1111111111111111111100000111111111111111111000000000000000000000000000
0000000001111111111111111111000001111111111111111111111111111111111110
0000111111111111111111100000000000000000000000000000000000011111111111
1111111100000111111111111111111111111111111111111000001111111111111111
1110000000000000000000000000000000000001111111111111111111100000111111
1111111111111111111111111111000001111111111111111111100000000000000000
0000000000000000000111111111111111111110000011111111111111111111111111
1111111000001111111111111111111110000000000000000000000000000000000001
1111111111111111111100000111111111111111111111111111111110000011111111
1111111111110000000000000000000000000000000000000111111111111111111111
1000001111111111111111111111111111110000011111111111111111111100000000
0000000000000000000000000000001111111111111111111110000011111111111111
1111111111111110000001111111111111111111110000000000000000000000000000
0000000000111111111111111111111100000111111111111111111111111111100000
1111111111111111111111000000000000000000000000000000000000001111111111
1111111111110000011111111111111111111111111100000111111111111111111111
1100000000000000000000000000000000000000111111111111111111111110000011
1111111111111111111111110000011111111111111111111111000000000000000000
0000000000000000000011111111111111111111111100000111111111111111111111
1110000011111111111111111111111000000000000000000000000000000000000000
0011111111111111111111110000011111111111111111111111000001111111111111
1111111111000000000000000000000000000000000000000000001111111111111111
1111100000111111111111111111111100000111111111111111111110000000000000
0000000000000000000000000000000000000111111111111111111100000111111111
1111111111100000111111111111111111100000000000000000000000000000000000
0000000000000000000111111111111111110000011111111111111111111000001111
1111111111110000000000000000000000000000000000000000000000000000000000
0011111111111111100000111111111111111111000001111111111111111000000000
0000000000000000000000000000000000000000000000000000001111111111111000
0011111111111111111000001111111111111100000000000000000000000000000000
0000000000000000000000000000000000001111111111110000011111111111111110
0000111111111110000000000000000000000000000000000000000000000000000000
0000000000000000001111111111100000111111111111110000011111111110000000
0000000000000000000000000000000000000000000000000000000000000000000000
0111111110000011111111111110000001111111100000000000000000000000000000
0000000000000000000000000000000000000000000000000000011111110000011111
1111111000001111110000000000000000000000000000000000000000000000000000
0000000000000000000000000000000000001111100000111111111100000111110000
0000000000000000000000000000000000000000000000000000000000000000000000
0000000000000000001110000011111111110000011100000000000000000000000000
0000000000000000000000000000000000000000000000000000000000000000000000
0100000111111110000010000000000000000000000000000000000000000000000000
0000000000000000000000000000000000000000000000000000000001111111000000
0000000000000000000000000000000000000000000000000000000000000000000000
0000000000000000000000000000000000000011111100000000000000000000000000
0000000000000000000000000000000000000000000000000000000000000000000000
0000000000000000000111100000000000000000000000000000000000000000000000
0000000000000000000000000000000000000000000000000000000000000000000001
1110000000000000000000000000000000000000000000000000000000000000000000
0000000000000000000000000000000000000000000000000011000000000000000000
0000000000000000000000000000000000000000000000000000000000000000000000
0000000000000000000000000000001000000000000000000000000000000000000000
0000000000000000000000000000000000000000000000000000000000000000000000
0000000000000000000000000000000000000000000000000000000000000000000000
0000000000000000000000000000000000000000000000000000000000000000000000
0000000000000000000000000000000000000000000000000000000000000000000000
0000000000000000000000000000000000000000000000000000000000000000000000
0000000000000000000000000000000000000000000000000000000000000000000000
0000000000000000000000000000000000000000000000000000000000000000000000
0000000000