P1
# Created by GIMP version 2.10.34 PNM plug-in
150 148
0000000000000000000000000000000000000000000000000000000000000000000000
0000000000000000000000000000000000000000000000000000000000000000000000
0000000000000000000000000000000000000000000000000000000000000000000000
0000000000000000000000000000000000000000000000000000000000000000000000
0000000000000000000000000000000000000000000000000000000000000000000000
0000000000000000000000000000000000000000000000000000000000000000000000
0000000000000000000000000000000000000000000000000000000000000000000000
0000000000000000000000000000000000000000000000000000000000000000000000
0000000000000000000000000000000000000000000000000000000000000000000000
0000000000000000000000000000000000000000000000000000000000000000000000
0000000000000000000000000000000000000000000000000000000000000000000000
0000000000000000000000000000000000000000000000000000000000000000000000
0000000000000000000000000000000000000000000000000000000000000000000000
0000000000000000000000000000000000000000000000000000000000000000000000
0000000000000000000000000000000000000000000000000000000000000000000000
0000000000000000000000000000000000000000000000000000000000000000000001
0101110110101000000000000000000000000000000000000000000000000000000000
0000000000000000000000000000000000000000000000000000000000000000000001
0111111111111111111111111111101000000000000000000000000000000000000000
0000000000000000000000000000000000000000000000000000000000000000000000
0000111111111111111111111111111111111111111111000000000000000000000000
0000000000000000000000000000000000000000000000000000000000000000000000
0000000001111111111111111111111111111111111111111111111111110000000000
0000000000000000000000000000000000000000000000000000000000000000000000
0000000000000001111111111111111111111111111111111111111111111111111111
1111000000000000000000000000000000000000000000000000000000000000000000
0000000000000000000001111111111111111111111111111111111111111111111111
1111111111111111100000000000000000000000000000000000000000000000000100
0000000000000000000000000000011111111111111111111111111111111111111111
1111111111111111111111111111110000000000000000000000000000000000000000
0000000111111110100000000000000000001111111111111111111111111111111111
1111111111111111111111111111111111111111111000000000000000000101011111
1100000000000000011111111111111111101000000011111111111111111111111111
1111111111111111111111111111111111111111111111111111111000001011111111
1111111111110000000000000001111111111111111111111110011111111111111111
1111111111111111111111111111111111111111111111111111111111111111100111
1111111111111111111111000000000000000111111111111111111111111000111111
1111111111111111111111111111111111111111111111111111111111111111111111
1111100111111111111111111111111000000000000000001111111111111111111111
1000111111111111111111111111111111111111111111111111111111111111111111
1111111111111110011111111111111111111111100000000000000000111111111111
1111111111110011111111111111111111111111111111111111111111111111111111
1111111111111111111111110001111111111111111111111110000000000000000011
1111111111111111111111001111111111111111111111111111111111111111111111
1111111111111111111111111111111111001111111111111111111111111000000000
0000000011111111111111111111111100111111111111111111111111111111111111
1111111111111111111111111111111111111111111100011111111111111111111111
1000000000000000001111111111111111111111110001111111111111111111111111
1111111111111111111111111111111111111111111111111111110011111111111111
1111111111000000000000000000011111111111111111111111000111111111111111
1111111111111111111111111111111111111111111111111111111111111110001111
1111111111111111111000000000000000000000111111111111111111111110011111
1111111111111111111111111111111111111111111111111111111111111111111111
1110011111111111111111111111000000000000000000000000111111111111111111
1110011111111111111111111111111111011011101110110110111011111111111111
1111111111111000111111111111111111110000000000000000000000000001111111
1111111111111001111111111111111111111111000000000000000000000000000001
1111111111111111111111100111111111111111111110000100000000000000000001
1000011111111111111111100011111111111111111111111111000000000000000000
0000000111111111111111111111111100011111111111111111100001100000000000
0000000000110000111111111111111110001111111111111111111111111110000000
0000000000000000111111111111111111111111110001111111111111111100001110
0000000000000000000011110000111111111111111100011111111111111111111111
1111100000000000000000000111111111111111111111111111000111111111111111
0000011110000000000000000000001111100000111111111111110000111111111111
1111111111111111000000000000000001111111111111111111111111100000111111
1111111110000111111000000000000000000000111111100001111111111111110000
1111111111111111111111111111000000000000011111111111111111111111111100
0011111111111111100001111111000000000000000000000011111111000001111111
1111111000001111111111111111111111111110000000000011111111111111111111
1111111000011111111111111100001111111100000000000000000000000111111111
0000111111111111111000011111111111111111111111111110000000011111111111
1111111111111110000111111111111111000001111111110000000000000000000000
0111111111100000111111111111110000011111111111111111111111111100000111
1111111111111111111111110000111111111111111000011111111111000000000000
0000000000000111111111100001111111111111110000111111111111111111111111
1111001111111111111111111111111100001111111111111110000111111111110000
0000000000000000000000001111111111000001111111111111100000111111111111
1111111111111111111111111111111111111111100001111111111111110000111111
1111100000000000000000000000000000001111111111000011111111111111100001
1111111111111111111111111111111111111111111111111000001111111111111100
0001111111111000000000000000000000000000011000011111111111000011111111
1111110000011111111111111111111111111111111111111111111111000011111111
1111111000011111111111000010000000000000000000000000111000011111111110
0001111111111111110000111111111111111111111111111111111111111111110000
1111111111111110000111111111110000111000000000000000000000000011100000
1111111111100001111111111111100000111111111111111111111111111111111111
1111100001111111111111110000111111111110000111000000000000000000000000
0011111100011111111111000011111111111111100001111111111111111111111111
1111111111111000001111111111111100001111111111100000111100000000000000
0000000000001111110000011111111111000011111111111111100001111111111111
1111111111111111111111000011111111111111100001111111111100001111110000
0000000000000000000000011111110000111111111110000011111111111111000011
1111111111111111111111111111110000111111111111111000001111111111000011
1111110000000000000000000000000001111111110000111111111110000111111111
1111110000111111111111111111111111111110000111111111111111000011111111
1110000111111111000000000000000000000000000111111111100001111111111110
0001111111111111100001111111111111111111111111100000111111111111110000
1111111111100000111111111000000000000000000000000000011111111111100001
1111111111000011111111111111000001111111111111111111111100000111111111
1111100001111111111100001111111111100000000000000000000000000001111111
1111110000111111111111000011111111111100000001111111111111111111000000
0111111111111000011111111111000011111111111110000000000000000000000000
0000111111111111110000111111111110000111111111110001000011111111111111
1110000100111111111111000011111111111000011111111111111000000000000000
0000000000000011111111111111100001111111111110000111111111100111000011
1111111111100000110011111111110000011111111110000011111111111111100000
0000000000000000000000001111111111111111000001111111111100011111111110
0111000001111111111100001111001111111111000111111111110000111111111111
1111000000000000000000000000000000111111111111111111000011111111111111
1111111110011111100001111111000001111000111111111101111111111110000111
1111111111111100000000000000000000000000000001111111111111111110000011
1111111111111111111000111111000011111000011111100011111111111111111111
1000011111111111111111110000000000000000000000000000000111111111111111
1111100001111111111111111111100111111111000011000011111110001111111111
1111111110000011111111111111111111000000000000000000000000000000011111
1111111111111111000001111111111111111110001111111110000000111111111001
1111111111111111110000111111111111111111111000000000000000000000000000
0000011111111111111111111111000011111111111111111000111111111100000111
1111111001111111111111111110000111111111111111111111100000000000000000
0000000000000001111111111111111111111110000011111111111111110011111111
1111111111111111000111111111111111100001111111111111111111111110000000
0000000000000000000000000001111111111111111111111110000111111111111111
0011111111111111111111111110011111111111111100001111111111111111111111
1000000000000000000000000000000000000011111111111111111111111100001111
1111111111001111111111111111111111110001111111111111000011111111111111
1111111111000000000000000000000000000000000000000011111111111111111111
1111000011111111111100011111111111111111111111001111111111111000011111
1111111111111111111000000000000000000000000000000000000000000111111111
1111111111111110000111111111110011111111111111111111111100111111111110
0001111111111111111111111110000000000000000000000000000000000000000000
0001111111111111111111111110000111111111000111111111111111111111110011
1111111100001111111111111111111111110000000000000000000000000000000000
0000000001000011111111111111111111111100111111111100011111111111111111
1111100011111111111011111111111111111111111100001110000000000000000000
0000000000000000000110000111111111111111111111111011111111111001111111
1111111111111110001111111111111111111111111111111111100001110000000000
0000000000000000000000000000011100000111111111111111111111111111111111
1001111111111111111111111001111111111111111111111111111111111000001111
0000000000000000000000000000000000000001111100001111111111111111111111
1111111111100111111111111111111111100111111111111111111111111111111111
0000111111000000000000000000000000000000000000000111111000001111111111
1111111111111111111110001111111111111111111110011111111111111111111111
1111111100000111111100000000000000000000000000000000000000011111110000
0111111111111111111111111111111000111111111111111111111001111111111111
1111111111111111100001111111110000000000000000000000000000000000000001
1111111100000111111111111111111111111111100111111111111111111111000111
1111111111111111111111111100011111111111000000000000000000000000000000
0000000001111111111000001111111111111111111111111110001111111111111111
1111000111111111111111111111111111000001111111111100000000000000000000
0000000000000000000111111111111000001111111111111111111111111100111111
1111111111111100111111111111111111111111111000011111111111110000000000
0000000000000000000000000000011111111111110000000001111111111111111111
1100111111111111111111110011111111111111111111111000000111111111111111
0000000000000000000000000000000000000000111111111111110000000000001011
1111111111110011111111111111111111001111111111111111000000000000111111
1111111110000000000000000000000000000000000000000111111111111111100000
0000000000001011111111000111111111111111111000111111111010000000000000
0000111111111111111000000000000000000000000000000000000000001111111111
1111100000000000000000000000010100111111111111111111110011101000000000
0000000000000011111111111111100000000000000000000000000000000000000000
1111111111111110000000000000000000000000000001111111111111111110000000
0000000000000000000000001111111111111110000000000000000000000000000000
0000000000111111111111111000000000000000000000000000000111111111111111
1110000000000000000000000000000000111111111111111000000000000000000000
0000000000000000000011111111111111110000000000000000000000001010011111
1111111111111100100000000000000000000000000011111111111111100000000000
0000000000000000000000000000001111111111111111100000000000000000000001
1100011111111111111111100111100000000000000000000000011111111111111110
0000000000000000000000000000000000000000111111111111111111000000000000
0000000111111001111111111111111110001111110000000000000000000111111111
1111111110000000000000000000000000000000000000000011111111111111111111
0000000000000011111111000111111111111111111000111111110000000000000000
1111111111111111111000000000000000000000000000000000000000001111111111
1111111111100000000000111111111110011111111111111111110011111111111000
0000000011111111111111111111100000000000000000000000000000000000000000
1111111111111111111111100000001111111111110001111111111111111110011111
1111111110000000111111111111111111111110000000000000000000000000000000
0000000000111111111111111111111111000011111111111111100111111111111111
1110001111111111111110000111111111111111111111111000000000000000000000
0000000000000000000011111111111111111111111110011111111111111100011111
1111111111111000111111111111111100111111111111111111111111000000000000
0000000000000000000000000000001111111111111111111111111001111111111111
1110011111111111111111110011111111111111110001111111111111111111111110
0000000000000000000000000000000000000000011111111111111111111111000111
1111111111110001111111111111111110011111111111111111001111111111111111
1111111100000000000000000000000000000000000000000011111111111111111111
1111100111111111111111100111111111111111111000111111111111111100011111
1111111111111111110000000000000000000000000000000000000000000111111111
1111111111111100011111111111111100011111111111111111100011111111111111
1100111111111111111111111111000000000000000000000000000000000000000000
0111111111111111111111111001111111111111111001111111111111111111001111
1111111111110001111111111111111111111100000000000000000000000000000000
0000000000111111111111111111111111000111111111111111000111111111111111
1110011111111111111111001111111111111111111111110000000000000000000000
0000000000000000000001111111111111111111111110011111111111111110011111
1111111111111000111111111111111100011111111111111111111111000000000000
0000000000000000000000000000000111111111111111111111110001111111111111
1100011111111111111111100011111111111111110011111111111111111111111100
0000000000000000000000000000000000000000011111111111111111111111100111
1111111111111001111111111111111111001111111111111111000111111111111111
1111111100000000000000000000000000000000000000000001111111111111111111
1111000111111111111111000111111111111111111001111111111111111100111111
1111111111111111110000000000000000000000000000000000000000000111111111
1111111111111110011111111111111110011111111111111111100011111111111111
1100011111111111111111111111000000000000000000000000000000000000000000
0111111111111111111111110001111111111111110001111111111111111110001111
1111111111110011111111111111111111111100000000000000000000000000000000
0000000000011111111111111111111111100111111111111111100111111111111111
1111001111111111111111000111111111111111111111110000000000000000000000
0000000000000000000001111111111111111111111100011111111111111100011111
1111111111111001111111111111111100111111111111111111111110000000000000
0000000000000000000000000000000111111111111111111111111001111111111111
1110011111111111111111100011111111111111110001111111111111111111111000
0000000000000000000000000000000000000000011111111111111111111111000111
1111111111110001111111111111111110001111111111111111001111111111111111
1111111000000000000000000000000000000000000000000001111111111111111111
1111100111111111111111100111111111111111111100111111111111111100011111
1111111111111111100000000000000000000000000000000000000000000011111111
1111111111111100011111111111111100011111111111111111100111111111111111
1100111111111111111111111110000000000000000000000000000000000000000000
0011111111111111111111111001111111111111111001111111111111111110001111
1111111111110001111111111111111111111000000000000000000000000000000000
0000000000011111111111111111111111000111111111111111100111111111111111
1110001111111111111111001111111111111111111111100000000000000000000000
0000000000000000000000111111111111111111111110011111111111111110011111
1111111111111100111111111111111100011111111111111111111110000000000000
0000000000000000000000000000000011111111111111111111110001111111111111
1100010101101011010110100011111111111111110011111111111111111111111000
0000000000000000000000000000000000000000001111111111111111111111100111
1111111111111000000000000000000000001111111111111111000111111111111111
1111111000000000000000000000000000000000000000000000111111111111111111
1111000111111111111111100000000000000000000001111111111111111100111111
1111111111111111100000000000000000000000000000000000000000000011111111
1111111111111110011111111111111111111111111111111111111111111111111111
1100011111111111111111111110000000000000000000000000000000000000000000
0011111111111111111111110001111111111111111111111111111111111111111111
1111111111110011111111111111111111110000000000000000000000000000000000
0000000000001111111111111111111111100111111111111111111111111111111111
1111111111111111111111000111111111111111111111000000000000000000000000
0000000000000000000000011111111111111111111100011111111111111111111111
1111111111111111111111111111111100111111111111111111111000000000000000
0000000000000000000000000000000000111111111111111111111001111111111111
1111111111111111111111111111111111111111110001111111111111111111100000
0000000000000000000000000000000000000000000000111111111111111111000111
1111111111111111111111111111111111111111111111111111001111111111111111
1110000000000000000000000000000000000000000000000000000001111111111111
1111100111111111111111111111111111111111111111111111111111111100011111
1111111111110000000000000000000000000000000000000000000000000000000011
1111111111111100011111111111111111111111111111111111111111111111111111
1100011111111111111100000000000000000000000000000000000000000000000000
0000000001111111111111111001111111111111111111111111111111111111111111
1111111111111001111111111111110000000000000000000000000000000000000000
0000000000000000000001111111111111000111111111111111111111111111111111
1111111111111111111111001111111111111100000000000000000000000000000000
0000000000000000000000000000000011111111111110011111111111111100000000
0000000000000000111111111111111100011111111111100000000000000000000000
0000000000000000000000000000000000000000000111111111110001111111111111
1100000000000000000000000011111111111111110001111111111100000000000000
0000000000000000000000000000000000000000000000000000001111111111100111
1111111111100011111111011101101101000111111111111111100111111111000000
0000000000000000000000000000000000000000000000000000000000000000011111
1111000111111111111110001111111111111111111110011111111111111100111111
1110000000000000000000000000000000000000000000000000000000000000000000
0000000111111110011111111111111001111111111111111111111000111111111111
1100011111111000000000000000000000000000000000000000000000000000000000
0000000000000000001111110001111111111111000111111111111111111111100011
1111111111110001111110000000000000000000000000000000000000000000000000
0000000000000000000000000000011111100111111111111100111111111111111111
1111110011111111111111100111110000000000000000000000000000000000000000
0000000000000000000000000000000000000000111100011111111111100011111111
1111111111111111000111111111111100111100000000000000000000000000000000
0000000000000000000000000000000000000000000000000000111001111111111110
0011111111111111111111111110011111111111110001110000000000000000000000
0000000000000000000000000000000000000000000000000000000000000011000111
1111111110011111111111111111111111111000111111111111000100000000000000
0000000000000000000000000000000000000000000000000000000000000000000000
0000100111111111110001111111111111111111111111100011111111111100100000
0000000000000000000000000000000000000000000000000000000000000000000000
0000000000000000011111111111001111111111111111111111111111001111111111
1100000000000000000000000000000000000000000000000000000000000000000000
0000000000000000000000000001111111111000111111111111111111111111111100
0111111111110000000000000000000000000000000000000000000000000000000000
0000000000000000000000000000000000000111111111100011111111111111111111
1111111100011111111110000000000000000000000000000000000000000000000000
0000000000000000000000000000000000000000000000000111111110011111111111
1111111111111111111001111111111000000000000000000000000000000000000000
0000000000000000000000000000000000000000000000000000000000001111110001
1111111111111111111111111111100011111110000000000000000000000000000000
0000000000000000000000000000000000000000000000000000000000000000000000
0111110011111111111111111111111111111111001111110000000000000000000000
0000000000000000000000000000000000000000000000000000000000000000000000
0000000000001110001111111111111111111111111111111100011100000000000000
0000000000000000000000000000000000000000000000000000000000000000000000
0000000000000000000000001000111111111111111111111111111111110001110000
0000000000000000000000000000000000000000000000000000000000000000000000
0000000000000000000000000000000000000111111111111111111111111111111111
1001000000000000000000000000000000000000000000000000000000000000000000
0000000000000000000000000000000000000000000000001010101010101011011011
0110110110100000000000000000000000000000000000000000000000000000000000
0000000000000000000000000000000000000000000000000000000000000000000000
0000000000000000000000000000000000000000000000000000000000000000000000
0000000000000000000000000000000000000000000000000000000000000000000000
0000000000000000000000000000000000000000000000000000000000000000000000
0000000000000000000000000000000000000000000000000000000000000000000000
0000000000000000000000000000000000000000000000000000000000000000000000
0000000000000000000000000000000000000000000000000000000000000000000000
0000000000000000000000000000000000000000000000000000000000000000000000
0000000000000000000000000000000000000000000000000000000000000000000000
0000000000000000000000000000000000000000000000000000000000000000000000
0000000000000000000000000000000000000000000000000000000000000000000000
0000000000000000000000000000000000000000000000000000000000000000000000
0000000000000000000000000000000000000000000000000000000000000000000000
0000000000000000000000000000000000000000000000000000000000000000000000
0000000000000000000000000000000000000000000000000000000000000000000000
0000000000000000000000000000000000000000000000000000000000000000000000
0000000000000000000000000000000000000000000000000000000000000000000000
0000000000