P1
# Created by GIMP version 2.10.34 PNM plug-in
100 100
0000000000000000000000000000000000000000000000000000000000000000000000
0000000000000000000000000000000000000000000000000000000000000000000000
0000000000000000000000000000000000000000000000000000000000000000000000
0000000000000000000000000000000000000000000000000000000000000000000000
0000000000000000000000000000000000000000000000000000000000000000000000
0000000000000000000000000000000000000000000000000000000000000000000000
0000000000000000000000000000000000000000000000000000000000000000000000
0000000000000000000000000000000000000000000000000000000000000000000000
0000000000000000000000000000000000000000000000000000000000000000000000
0000000000000000000000000000000000000000000000000000000000000000000000
0000000000000000000000000000000000000000000000000000000000000000000000
0000000000000000000000000000000000000000000000000000000000000000000000
0000000000000000000000000000000000000000000000000000000000000000000000
0000000000000000000000000000000000000000000000000000000000000000000000
0000000000000000000000000000000000000000000000000000000000000000000000
0000000000000000000000000000000000000000000000000000000000000000000000
0000000000000000000000000000000000000000000000000000000000000000000000
0000000000000000000000000000000000000000000000000000000000000000000000
0000000000000000000000000000000000000000000000000000000000000000000000
0000000000000000000000000000000000000000000000000000000000000000000000
0000000000000000000000000000000000000000000000000000000000000000000000
0000000000000000000000000000000000000000000000000000000000000000000000
0000000000000000000000000000000000000000000000000000000000000000000000
0000000000000000000000000000000000000000000000000000000000000000000000
0000000000000000000000000000000000000000000000000000000000000000000000
0000000000000000000000000000000000000000000000000000000000000000000000
0000000000000000000000000000000000000000000000000000000000000000000000
0000000000000000000000000000000000000000000000000000000000000000000000
0000000000000000000000000000000000000000000000000000000000000000000000
0000000000000000000000000000000000000000000000000000000000000000000000
0000000000000000000000000000000000000000000001011111101000000000000000
0000000000000000000000000000000000000000000000000000000000000000000000
0111111111111111111000000000000000000000000000000000000000000000000000
0000000000000000000000000000111111111111111111111111000000000000000000
0000000000000000000000000000000000000000000000000000000011111111111111
1111111111111100000000000000000000000000000000000000000000000000000000
0000000000000011111111111111111111111111111111000000000000000000000000
0000000000111111111111111111111110000000000111111111111111111111111111
1111111000000000000000000000000000000000111111111111111111111110000000
0001111000000011111111111111111111111100000000000000000000000000000000
1111111111111111111111100000000111111000000011111111111111111111111100
0000000000000000000000000000001110001111111111111111100000000111111000
0000111111111111111111111111100000000000000000000000000000001110001111
1111111111111000000011111110000000111111111111111111111111110000000000
0000000000000000000011000001111111111111111000000011111110000000111111
1111111111111111111100000000000000000000000000000011000001111111111111
1110000000111111100000001111111111111111111111111100000000000000000000
0000000000110000011111111111111110000000011111100000001111111111111111
1111111110000000000000000000000000000000110000011111111111111110000000
0111111000000011111111111111111111111110000000000000000000000000000000
1100000111111111111111100000000111111000000011111111111111111111111110
0000000000000000000000000000001100000111111111111111100000000011111111
1111111111111111111111111111000000000000000000000000000000001100000111
1111111111111000000000011111111111111111111111111111111110000000000000
0000000000000000000011000001111111111111111000000000000111111111111111
1111111111111110000000000000000000000000000000000011000001111111111111
1110000000000000111111111111111111111111111100000000000000000000000000
0000000000110000011111111111111110000000000000001111111111111111111111
1100000000000000000000000000000000000000110000011111111111111110000000
0000000000011111111111111111100000000000000000000000000000000000000000
1110001111111111111111100000000000000000000001011111101000000000000000
0000000000000000000000000000001110001111111111111111100000000000000000
0000000000000000000000000000000000000000000000000000000000001111111111
1111111111111000000000000000000000000000000000000000000000000000000000
0000000000000000000011111111111111111111111000000000000000000000000000
0000000000000000000000000000000000000000000000000011111111111111111111
1110000000000000000000000000000000000000000000000000000000000000000000
0000000000111111111111111111111110000000000000000000000000000000000000
0000000000000000000000000000000000000000111111111111111111111110000000
0000000000000000000000000000000000000000000000000000000000000000000000
1111111111111111111111100000000000000000000000000000000000000000000000
0000000000000000000000000000000000000000000000000000000000000000000000
0000000000000000000000000000000000000000000000000000000000000000000000
0000000000000000000000000000000000000000000000000000000000000000000000
0000000000000000000000000000000000000000000000000000000000000000000000
0000000000000000000000000000000000000000000000000000000000000000000000
0000000000000000000000000000000000000000000000000000000000000000000000
0000000000000000000000000000000000000000000000000000000000000000000000
0000000000000000000000000000000000000000000000000000000000000000000000
0000000000000000000000000000000000000000000000000000000000000000000000
0000000000000000000000000000000000000000000000000000000000000000000000
0000000000000000000000000000000000000000000000000000000000000000000000
0000000000000000000000000000000000000000000000000000000000000000000000
0000000000000000000000000000000000000000000000000000000000000000000000
0000000000000000000000000000000000000000000000000000000000000000000000
0000000000000000000000000000000000000000000000000000000000000000000000
0000000000000000000000000000000000000000000000000000000000000000000000
0000000000000000000000000000000000000000000010111010000000000000000000
0000000000000000000000000000000000000000000000000000000000000000000000
0111111111111100000000000000000000000000000000000000000000000000000000
0000000000000000000000000000001111111111111111000000000000000000000000
0000000000000000000000000000000000000000000000000000000000111111111111
1111111000000000000000000000000000000000000000000000000000000000000000
0000000000000000011111111111111111111100000000000000000000000000000000
0000000000000000000000000000000000000000000000111111111111111111111110
0000000000000000000000000000000000000000000000000000000000000000000000
0000011111111111111111111111110000000000000000000000000000000000000000
0000000000000000000000000000000000111111111111111111111111111000000000
0000000000000000000000000000000000000000000000000000000000000000111111
1111111111111111111110000000000000000000000000000000000000000000000000
0000000000000000000000011111111111111111111111111111000000000000000000
0000000000000000000000000000000000000000000000000000011111111111111111
1111111111110000000000000000000000000000000000000000000000000000000000
0000000000000111111111111111111111111111110000000000000000000000000000
0000000000000000000000000000000000000000001111111111111111111111111111
1110000000000000000000000000000000000000000000000000000000000000000000
0011111111111111111111111111111110000000000000000000000000000000000000
0000000000000000000000000000000011111111111111111111111111111110000000
0000000000000000000000000000000000000000000000000000000000000011111111
1111111111111111111111100000000000000000000000000000000000000000000000
0000000000000000000000011111111111111111111111111111100000000000000000
0000000000000000000000000000000000000000000000000000011111111111111111
1111111111110000000000000000000000000000000000000000000000000000000000
0000000000000111111111111111111111111111110000000000000000000000000000
0000000000000000000000000000000000000000000111111111111111111111111111
1100000000000000000000000000000000000000000000000000000000000000000000
0000111111111111111111111111111000000000000000000000000000000000000000
0000000000000000000000000000000000111111111111111111111111111000000000
0000000000000000000000000000000000000000000000000000000000000000011111
1111111111111111111100000000000000000000000000000000000000000000000000
0000000000000000000000000011111111111111111111111000000000000000000000
0000000000000000000000000000000000000000000000000000000001111111111111
1111111100000000000000000000000000000000000000000000000000000000000000
0000000000000000001111111111111111111000000000000000000000000000000000
0000000000000000000000000000000000000000000000000011111111111111110000
0000000000000000000000000000000000000000000000000000000000000000000000
0000000000011111111111100000000000000000000000000000000000000000000000
0000000000000000000000000000000000000000000010111010000000000000000000
0000000000000000000000000000000000000000000000000000000000000000000000
0000000000000000000000000000000000000000000000000000000000000000000000
0000000000000000000000000000000000000000000000000000000000000000000000
0000000000000000000000000000000000000000000000000000000000000000000000
0000000000000000000000000000000000000000000000000000000000000000000000
0000000000000000000000000000000000000000000000000000000000000000000000
0000000000000000000000000000000000000000000000000000000000000000000000
0000000000000000000000000000000000000000000000000000000000000000000000
0000000000000000000000000000000000000000000000000000000000000000000000
0000000000000000000000000000000000000000000000000000000000000000000000
0000000000000000000000000000000000000000000000000000000000000000000000
0000000000000000000000000000000000000000000000000000000000000000000000
0000000000000000000000000000000000000000000000000000000000000000000000
0000000000000000000000000000000000000000000000000000000000000000000000
000000000000000000000000000000000000000000000000000000000000