P1
# Created by GIMP version 2.10.34 PNM plug-in
244 200
0000000000000000000000000000000000000000000000000000000000000000000000
0000000000000000000000000000000000000000000000000000000000000000000000
0000000000000000000000000000000000000000000000000000000000000000000000
0000000000000000000000000000000000000000000000000000000000000000000000
0000000000000000000000000000000000000000000000000000000000000000000000
0000000000000000000000000000000000000000000000000000000000000000000000
0000000000000000000000000000000000000000000000000000000000000000000000
0000000000000000000000000000000000000000000000000000000000000000000000
0000000000000000000000000000000000000000000000000000000000000000000000
0000000000000000000000000000000000000000000000000000000000000000000000
0000000000000000000000000000000000000000000000000000000000000000000000
0000000000000000000000000000000000000000000000000000000000000000000000
0000000000000000000000000000000000000000000000000000000000000000000000
0000000000000000000000000000000000000000000000000000000000000000000000
0000000000000000000000000000000000000000000000000000000000000000000000
0000000000000000000000000000000000000000000000000000000000000000000000
0000000000000000000000000000000000000000000000000000000000000000000000
0000000000000000000000000000000000000000000000000000000000000000000000
0000000000000000000000000000000000000000000000000000000000000000000000
0000000000000000000000000000000000000000000000000000000000000000000000
0000000000000000000000000000000000000000000000000000000000000000000000
0000000000000000000000000000000000000000000000000000000000000000000000
0000000000000000000000000000000000000000000000000000000000000000000000
0000000000000000000000000000000000000000000000000000000000000000000000
0000000000000000000000000000000000000000000000000000000000000000000000
0000000000000000000000000000000000000000000000000000000000000000000000
0000000000000000000000000000000000000000000000000000000000000000000000
0000000000000000000000000000000000000000000000000000000000000000000000
0000000000000000000000000000000000000000000000000000000000000000000000
0000000000000000000000000000000000000000000000000000000000000000000000
0000000000000000000000000000000000000000000000000000000000000000000000
0000000000000000000000000000000000000000000000000000000000000000000000
0000000000000000000000000000000000000000000000000000000000000000000000
0000000000000000000000000000000000000000000000000000000000000000000000
0000000000000000000000000000000000000000000000000000000000000000000000
0000001111111111111111111111111111111111111000000000000000000000000000
0000000000000000000000000000000000000000000000000000000000000000000000
0000000000000000000000000000000000000000000000000000000000000000000000
0000000000000000000000000000000000000000111111111111111111111111111111
1111111000000000000000000000000000000000000000000000000000000000000000
0000000000000000000000000000000000000000000000000000000000000000000000
0000000000000000000000000000000000000000000000000000000000000000000000
0000111111111111111111111111111111111111000000000000000000000000000000
0000000000000000000000000000000000000000000000000000000000000000000000
0000000000000000000000000000000000000000000000000000000000000000000000
0000000000000000000000000000000000000011111111111111111111111111111111
1111100000000000000000000000000000000000000000000000000000000000000000
0000000000000000000000000000000000000000000000000000000000000000000000
0000000000000000000000000000000000000000000000000000000000000000000000
0011111111111111111111111111111111111100000000000000000000000000000000
0000000000000000000000000000000000000000000000000000000000000000000000
0000000000000000000000000000000000000000000000000000000000000000000000
0000000000000000000000000000000000001111111111111111111111111111111111
1110000000000000000000000000000000000000000000000000000000000000000000
0000000000000000000000000000000000000000000000000000000000000000000000
0000000000000000000000000000000000000000000000000000000000000000000000
1111111111111111111111111111111111110000000000000000000000000000000000
0000000000000000000000000000000000000000000000000000000000000000000000
0000000000000000000000000000000000000000000000000000000000000000000000
0000000000000000000000000000000000111111111111111111111111111111111111
1000000000000000000000000000000000000000000000000000000000000000000000
0000000000000000000000000000000000000000000000000000000000000000000000
0000000000000000000000000000000000000000000000000000000000000000000011
1111111111111111111111111111111111000000000000000000000000000000000000
0000000000000000000000000000000000000000000000000000000000000000000000
0000000000000000000000000000000000000000000000000000000000000000000000
0000000000000000000000000000000011111111111111111111111000011111111110
0000000000000000000000000000000000000000000000000000000000000000000000
0000000000000000000000000000000000000000000000000000000000000000000000
0000000000000000000000000000000000000000000000000000000000000000001111
1111111111111111110000011111111100000000000000000000000000000000000000
0000000000000000000000000000000000000000000000000000000000000000000000
0000000000000000000000000000000000000000000000000000000000000000000000
0000000000000000000000000000001111111111111111111111000000111111111000
0000000000000000000000000000000000000000000000000000000000000000000000
0000000000000000000000000000000000000000000000000000000000000000000000
0000000000000000000000000000000000000000000000000000000000000000111111
1111111111111111000000111111110000000000000000000000000000000000000000
0000000000000000000000000000000000000000000000000000000000000000000000
0000000000000000000000000000000000000000000000000000000011111000000000
0000000000000000000000000000111111111111111111111110000111111111100000
0000000000000000000000000000000000000000000000000000000000000000000000
0000000000000000000000011111111111111110000000000000000000000000000000
0000000000000000011111111111100000000000000000000000000000000011111111
1111111111111111011111111111000000000000000000000000000000000000000000
0000000000000000000000000000000000000000000000000000000001111111111111
1100000000000000000000000000000000000000000000000111111111111111100000
0000000000000000000000000011111111111111111111111111111111111110000000
0000000000000000000000000000000000000000000000000000000000000000000000
0000000000000000000001111111111111111000000000000000000000000000000000
0000000000001111111111111111110000000000000000000000000000001111111111
1111111111111111111111111100000000000000000000000000000000000000000000
0000000000000000000000000000000000000000000000000000000111111111111111
1000000000000000000000000000000000000000000011111111111111111111100000
0000000000000000000000001111111111111111111111111111111111111000000000
0000000000000000000000000000000000000000000000000000000000000000000000
0000000000000000000111111111111111100000000000000000000000000000000000
0000000011111111111111111111110000000000000000000000000000111111111111
1111111111111111111111110000000000000000000000000000000000000000000000
0000000000000000000000000000000000000000000000000000011111111111111100
0000000000000000000000000000000000000000011111111111111111111111100000
0000000000000000000000111111111111111111111111111111111111100000000000
0000000000000000000000000000000000000000000000000000000000000000000000
0000000000000000011111111111111110000000000000000000000000000000000000
0000111111111111111111111111110000000000000000000000000011111111111111
1111111111111111111111000000000000000000000000000000000000000000000000
0000000000000000000000000000000000000000000000000001111111111111111000
0000000000000000000000000000000000000011111111111111111111111111000000
0000000000000000000011111111111111111111111111111111111110000000000000
0000000000000000000000000000000000000000000000000000000000000000000000
0000000000000001111111111111111000000000000000000000000000000000000000
0111111111111111111111111111100000000000000000000000001111111111111111
1111111111111111111100000000000000000000000000000000000000000000000000
0000000000000000000000000000000000000000000000000111111111111111000000
0000000000000000000000000000000000011111111111111111111111111110000000
0000000000000000001111111111111111111111111111111111111000000000000000
0000000000000000000000000000000000000000000000000000000000000000000000
0000000000000111111111111111100000000000000000000000000000000000000001
1111111111111111111111111110000000000000000000000000111111111111111111
1111111111111111110000000000000000000000000000000000000000000000000000
0000000000000000000000000000000000000000000000011111111111111110000000
0000000000000000000000000000000011111111111111111111010111111000000000
0000000000000000111111111111111111111111111111111111100000000000000000
0000000000000000000000000000000000000000000000000000000000000000000000
0000000000011111111111111110000000000000000000000000000000000000001111
1111111111111110000011111100000000000000000000000011111111111111111111
1111111111111111000000000000000000000000000000000000000000000000000000
0000000000000000000000000000000000000000000001111111111111110000000000
0000000000000000000000000000000111111111111111111000001111100000000000
0000000000000001010010100101001010010100101001010100000000000000000000
0000000000000000000000000000000000000000000000000000000000000000000000
0000000001111111111111111000000000000000000000000000000000000000111111
1111111111111000001111110000000000000000000000000000000000000000000000
0000000000000000000000000000000000000000000000000000000000000000000000
0000000000000000000000000000000000000000000111111111111111100000000000
0000000000000000000000000000011111111111111111110001111110000000000000
0000000000000000000000000000000000000000000000000000000000000000000000
0000000000000000000000000000000000000000000000000000000000000000000000
0000000111111111111111100000000000000000000000000000000000000001111111
1111111111111111111110000000000000000000000000000000000000000000000000
0000000000000000000000000000000000000000000000000000000000000000000000
0000000000000000000000000000000000000000011111111111111100000000000000
0000000000000000000000000001111111111111111111111111111000000000000000
0000000000000000000000000000000000000000000000000000000000000000000000
0000000000000000000000000000000000000000000000000000000000000000000000
0000011111111111111110000000000000000000000000000000000000000111111111
1111111111111111111000000000000000000000000000000000000000000000000000
0000000000000000000000000000000000000000000000000000000000000000000000
0000000000000000000000000000000000000001111111111111111000000000000000
0000000000000000000000000011111111111111111111111111000000000000000000
0000000000000000000000000000000000000000000000000000000000000000000000
0000000000000000000000000000000000000000000000000000000000000000000000
0001111111111111111000000000000000000000000000000000000000001111111111
1111111111111111000000000000000000000000000000000000000000000000000000
0000000000000000000000000000000000000000000000000000000000000000000000
0000000000000000000000000000000000000111111111111111000000000000000000
0000000000000000000000000111111111111111111111111000000000000000000000
0000000000000000000000000000000000000000000000000000000000000000000000
0000000000000000000000000000000000000000000000000000000000000000000000
0111111111111111100000000000000000000000000000000000000000001111111111
1111111111110000000000000000000000000000000000000000000000000000000000
0000000000000000000000000000000000000000000000000000000011011011000000
0000000000000000000000000000000000011111111111111110000000000000000000
0000000000000000000000001111111111111111111110000000000000000000000000
0000000000000000000000000000000000000000000000000000000000000000000000
0000000000000001111111111111111111000000000000000000000000000000000001
1111111111111110000000000000000000000000000000000000000000001111111111
1111111110000000000000000000000000000000000000000000000000000000000000
0000000000000000000000000000000000000000000000111111111111111111111111
0000000000000000000000000000000001111111111111110000000000000000000000
0000000000000000000000000111111111111111100000000000000000000000000000
0000000000000000000000000000000000000000000000000000000000000000000000
0000000011111111111111111111111111111000000000000000000000000000000111
1111111111111000000000000000000000000000000000000000000000000111111111
1110000000000000000000000000000000000000000000000000000000000000000000
0000000000000000000000000000000000000000111111111111111111111111111111
1100000000000000000000000000000111111111111111100000000000000000000000
0000000000000000000000000001111111000000000000000000000000000000000000
0000000000000000000000000000000000000000000000000000000000000000000000
0000111111111111111111111111111111111000000000000000000000000000011111
1111111111100000000000000000000000000000000000000000000000000000000000
0000000000000000000000000000000000000000000000000000000000000000000000
0000000000000000000000000000000000000111111111111111111111111111111111
1100000000000000000000000000011111111111111100000000000000000000000000
0000000000000000000000000000000000000000000000000000000000000000000000
0000000000000000000000000000000000000000000000000000000000000000000000
1111111111111111111111111111111111110000000000000000000000000001111111
1111111110000000000000000000000000000000000000000000000000000000000000
0000000000000000000000000000000000000000000000000000000000000000000000
0000000000000000000000000000000000111111111111111111111111111111111111
1000000000000000000000000001111111111111111000000000000000000000000000
0000000000000000000000000000000000000000000000000000000000000000000000
0000000000000000000000000000000000000000000000000000000000000000000011
1111111111111111111111111111111111100000000000000000000000000111111111
1111111000000000000000000000000000000000000000000000000000000000000000
0000000000000000000000000000000000000000000000000000000000000000000000
0000000000000000000000000000000011111111111111111111111111111111111100
0000000000000000000000000111111111111111000000000000000000000000000000
0000000000000000000000000000000000000000000000000000000000000000000000
0000000000000000000000000000000000000000000000000000000000000000000111
1111111111111111111111111111111100000000000000000000000000011111111111
1111100000000000000000000000000000000000000000000000000000000000000000
0000000000000000000000000000000000000000000000000000000000000000000000
0000000000000000000000000000000011111111111111111111111111111111100000
0000000000000000000000011111111111111110000000000000000000000000000000
0000000000000000000000000000000000000000000000000000000000000000000000
0000000000000000000000000000000000000000000000000000000000000000000111
1111111111111111111111111110000000000000000000000000000001111111111111
1110000000000000000000000000000000000000000000000000000000000000000000
0000000000000000000000000000000000000000000000000000000000000000000000
0000000000000000000000000000000011111111111111111111111111110000000000
0000000000000000000001111111111111110000000000000000000000000000000000
0000000000000000000000000000000000000000000000000000000000000000000000
0000000000000000000000000000000000000000000000000000000000000000000001
1111111111111111111111000000000000000000000000000000000111111111111111
1000000000000000000000000000000000000000000000000000000000000000000000
0000000000000000000000000000000000000000000000000000000000000000000000
0000000000000000000000000000000000001111111111111111000000000000000000
0000000000000000000111111111111111100000000000000000000000000000000000
0000000000000000000000000000000000000000000000000000000000000000000000
0000000000000000000000000000000000000000000000000000000000000000000000
0000010010010000000000000000000000000000000000000000011111111111111110
0000000000000000000000000000000000000000000000000000000000000000000000
0000000000000000000000000000000000000000000000000000000000000000000000
0000000000000000000000000000000000000000000000000000000000000000000000
0000000000000000011111111111111100000000000000000000000000000000000000
0000000000000000000000000000000000000000000000000000000000000000000000
0000000000000000000000000000000000000000000000000000000000000000000000
0000000000000000000000000000000000000000000000000001111111111111111000
0000000000000000000000000000000000000000000000000000000000000000000000
0000000000000000000000000000000000000000000000000000000000000000000000
0000000000000000000000000000000000000000000000000000000000000000000000
0000000000000001111111111111111000000000000000000000000000000000000000
0000000000000000000000000000000000000000000000000000000000000000000000
0000000000000000000000000000000000000000000000000000000000000000000000
0000000000000000000000000000000000000000000000000111111111111111100000
0000000000000000000000000000000000000000000000000000000000000000000000
0000000000000000000000000000000000000000000000000000000000000000000000
0000000000000000000000000000000000000000000000000000000000000000000000
0000000000000111111111111111000000000000000000000000000000000000000000
0000000000000000000000000000000000000000000000000000000000000000000000
0000000000000000000000000000000000000000000000000000000000000000000000
0000000000000000000000000000000000000000000000011011101110110110000000
0000000000000000000000000000000000000000000000000000000000000000000000
0000000000000000000000000000000000000000000000000000000000000000000000
0000000000000000000000000000000000000000000000000000000000000000000000
0000000000000000000000000000000000000000000000000000000000000000000000
0000000000000000000000000000000000000000000000000000000000000000001010
1010101010100000000000000000000000000000000000000000000000000000000000
0000000000000000000000000000000000000000000000000000000000000000000000
0000000000000000000000000000000000000000000000000000000000000000000000
0000000000000000000000000000111111111111111110000000000000000000000000
0000000000000000000000000000000000000000000000000000000000000000000000
0000000000000000000000000000000000000000000000000000000000000000000000
0000000000000000000000000000000000000000000000000000000000000001111111
1111111110000000000000000000000000000000000000000000000000000000000000
0000000000000000000000000000000000000000000000000000000000000000000000
0000000000000000000000000000000000000000000000000000000000000000000000
0000000000000000000000000001111111111111111000000000000000000000000000
0000000000000000000000000000000000000000000000000000000000000000000000
0000000000000000000000000000000000000000000000000000000000000000000000
0000000000000000000000000000000000000000000000000000000000000111111111
1111111000000000000000000000000000000000000000000000000000000000000000
0000000000000000000000000000000000000000000000000000000000000000000000
0000000000000000000000000000000000000000000000000000000000000000000000
0000000000000000000000001111111111111111100000000000000000000000000000
0000000000000000000000000000000000000000000000000000000000000000000000
0000000000000000000000000000000000000000000000000000000000000000000000
0000000000000000000000000000000000000000000000000000000000011111111111
1111100000000000000000000000000000000000000000000000000000000000000000
0000000000000000000000000000000000000000000000000000000000000000000000
0000000000000000000000000000000000000000000000000000000000000000000000
0000000000000000000000011111111111111110000000000000000000000000000000
0000000000000000000000000000000000000000000000000000000000000000000000
0000000000000000000000000000000000000000000000000000000000000000000000
0000000000000000000000000000000000000000000000000000000001111111111111
1110000000000000000000000000000000000000000000000000000000000000000000
0000000000000000000000000000000000000000000000000000000000000000000000
0000000000000000000000000000000000000000000000000000000000000000000000
0000000000000000000011111111111111111000000000000000000000000000000000
0000000000000000000000000000000000000000000000000000000000000000000000
0000000000000000000000000000000000000000000000000000000000000000000000
0000000000000000000000000000000000000000000000000000000111111111111111
1000000000000000000000000000000000000000000000000000000000000000000000
0000000000000000000000000000000000000000000000000000000000000000000000
0000000000000000000000000000000000000000000000000000000000000000000000
0000000000000000000111111111111111100000000000000000000000000000000000
0000000000000000000000000000000000000000000000000000000000000000000000
0000000000000000000000000000000000000000000000000000000000000000000000
0000000000000000000000000000000000000000000000000000011111111111111110
0000000000000000000000000000000000000000000000000000000000000000000000
0000000000000000000000000000000000000000000000000000000000000000000000
0000000000000000000000000000000000000000000000000000000000000000000000
0000000000000000111111111111111110000000000000000000000000000000000000
0000000000000000000000000000000000000000000000000000000000000000000000
0000000000000000000000000000000000000000000000000000000000000000000000
0000000000000000000000000000000000000000000000000001111111111111111000
0000000000000000000000000000000000000000000000000000000000000000000000
0000000000000000000000000000000000000000000000000000000000000000000000
0000000000000000000000000000000000000000000000000000000000000000000000
0000000000000001111111111111111000000000000000000000000000000000000000
0000000000000000000000000000000000000000000000000000000000000000000000
0000000000000000000000000000000000000000000000000000000000000000000000
0000000000000000000000000000000000000000000000000111111111111111100000
0000000000000000000000000000000000000000000000000000000000000000000000
0000000000000000000000000000000000000000000000000000000000000000000000
0000000000000000000000000000000000000000000000000000000000000000000000
0000000000001111111111111111100000000000000000000000000000000000000000
0000000000000000000000000000000000000000000000000000000000000000000000
0000000000000000000000000000000000000000000000000000000000000000000000
0000000000000000000000000000000000000000000000011111111111111110000000
0000000000000000000000000000000000000000000000000000000000000000000000
0000000000000000000000000000000000000000000000000000000000000000000000
0000000000000000000000000000000000000000000000000000000000000000000000
0000000000011101110110110100000000000000000000000000000000000000000000
1111100000000000000000000000000000000000000000000000000000000000000000
0000000000000000000000000000000000000000000000000000000000000000000000
0000000000000000000000000000000000000000000000000000000000000000000000
0000000000000000000000000000000111111111110000000000000000000000000000
0000000000000000000000000000000000000000000000000000000000000000000000
0000000000000000000000000000000000000000000000000000000000000000000000
0000000000000000000000000000000000000000000000000000000000000000011111
1111111000000000000000000000000000000000000000000000000000000000000000
0000000000000000000000000000000000000000000000000000000000000000000000
0000000000000000000000000000000000000000000000000000000000000000000000
0000000000000000000000000000111111100111100000000000000000000000000000
0000000000000000000000000000000000000000000000000000000000000000000000
0000000000000000000000000000000000000000000000000000000000000000000000
0000000000000000000000000000000000000000000000000000000000000111111100
0011110000000000000000000000000000000000000000000000000000000000000000
0000000000000000000000000000000000000000000000000000000000000000000000
0000000000000000000000000000000000000000000000000000000000000000000000
0000000000000000000000000011111100001111000000000000000000000000000000
0000000000000000000000000000000000000000000000000000000000000000000000
0000000000000000000000000000000000000000000000000000000000000000000000
0000000000000000000000000000000000000000000000000000000000001111110000
1110000000000000000000000000000000000000000000000000000000000000000000
0000000000000000000000000000000000000000000000000000000000000000000000
0000000000000000000000000000000000000000000000000000000000000000000000
0000000000000000000000001111111111111000000000000000000000000000000000
0000000000000000000000000000000000000000000000000000000000000000000000
0000000000000000000000000000000000000000000000000000000000000000000000
0000000000000000000000000000000000000000000000000000000000011111111111
0000000000000000000000000000000000000000000000000000000000000000000000
0000000000000000000000000000000000000000000000000000000000000000000000
0000000000000000000000000000000000000000000000000000000000000000000000
0000000000000000000000001111111111000000000000000000000000000000000000
0000000000000000000000000000000000000000000000000000000000000000000000
0000000000000000000000000000000000000000000000000000000000000000000000
0000000000000000000000000000000000000000000000000000000000000100100000
0000000000000000000000000000000000000000000000000000000000000000000000
0000000000000000000000000000000000000000000000000000000000000000000000
0000000000000000000000000000000000000000000000000000000000000000000000
0000000000000000000000000000000000000000000000000000000000000000000000
0000000000000000000000000000000000000000000000000000000000000000000000
0000000000000000000000000000000000000000000000000000000000000000000000
0000000000000000000000000000000000000000000000000000000000000000000000
0000000000000000000000000000000000000000000000000000000000000000000000
0000000000000000000000000000000000000000000000000000000000000000000000
0000000000000000000000000000000000000000000000000000000000000000000000
0000000000000000000000000000000000000000000000000000000000000000000000
0000000000000000000000000000000000000000000000000000000000000000000000
0000000000000000000000000000000000000000000000000000000000000000000000
0000000000000000000000000000000000000000000000000000000000000000000000
0000000000000000000000000000000000000000000000000000000000000000000000
0000000000000000000000000000000000000000000000000000000000000000000000
0000000000000000000000000000000000000000000000000000000000000000000000
0000000000000000000000000000000000000000000000000000000000000000000000
0000000000000000000000000000000000000000000000000000000000000000000000
0000000000000000000000000000000000000000000000000000000000000000000000
0000000000000000000000000000000000000000000000000000000000000000000000
0000000000000000000000000000000000000000000000000000000000000000000000
0000000000000000000000000000000000000000000000000000000000000000000000
0000000000000000000000000000000000000000000000000000000000000000000000
0000000000000000000000000000000000000000000000000000000000000000000000
0000000000000000000000000000000000000000000000000000000000000000000000
0000000000000000000000000000000000000000000000000000000000000000000000
0000000000000000000000000000000000000000000000000000000000000000000000
0000000000000000000000000000000000000000000000000000000000000000000000
0000000000000000000000000000000000000000000000000000000000000000000000
0000000000000000000000000000000000000000000000000000000000000000000000
0000000000000000000000000000000000000000000000000000000000000000000000
0000000000000000000001111111111110000000000000000000000000000000000000
0000000000000000000000000000000000000000000000000000000000000000000000
0000000000000000000000000000000000000000000000000000000000000000000000
0000000000000000000000000000000000000000000000000000111111111111111111
0000000000000000000000000000000000000000000000000000000000000000000000
0000000000000000000000000000000000000000000000000000000000000000000000
0000000000000000000000000000000000000000000000000000000000000000000000
0000000000000111111111111111111111111000000000000000000000000000000000
0000000000000000000000000000000000000000000000000000000000000000000000
0000000000000000000000000000000000000000000000000000000000000000000000
0000000000000000000000000000000000000000000000111111111111111111111111
1100000000000000000000000000010000000000000000000000000000000000000000
0000000000000000000000000000000000000000000000000000000000000000000000
0000000000000000000000000000000000000000000000000000000000000000000000
0000000011111111111111111111111111111100000000000000000000001111111110
0000000000000000000000000000000000000000000000000000000000000000000000
0000000000000000000000000000000000000000000000000000000000000000000000
0000000000000000000000000000000000000000011111111111111111111111111111
1110000000000000000000011111111111000000000000000000000000000000000000
0000000000000000000000000000000000000000000000000000000001111111111111
1111111111100000000000000000000000000000000000000000000000000000000000
0000011111111111111111111111111111111100000000000000000011111111111110
0000000000000000000000000000000000000000000000000000000000000000000000
0000000000000000000001111111111111111111111110000000000000000000000000
0000000000000000000000000000000000000111111111111111111111111111111111
1110000000000000000111111111111111000000000000000000000000000000000000
0000000000000000000000000000000000000000000000000000000111111111111111
1111111110000000000000000000000000000000000000000000000000000000000000
1111111111111111111111111111111111111100000000000000111111111111111110
0000000000000000000000000000000000000000000000000000000000000000000000
0000000000000000000111111111111111111111111000000000000000000000000000
0000000000000000000000000000000000111111111111111111111111111111111111
1100000000000000111111111111111110000000000000000000000000000000000000
0000000000000000000000000000000000000000000000000000011111111111111111
1111111000000000000000000000000000000000000000000000000000000000000111
1111111111111111111111111111111111111000000000000111111111111111111100
0000000000000000000000000000000000000000000000000000000000000000000000
0000000000000000011111111111111111111111100000000000000000000000000000
0000000000000000000000000000001111111111111111111111111111111111111111
1100000000000111111111111111111100000000000000000000000000000000000000
0000000000000000000000000000000000000000000000000001111111111111111111
1111100000000000000000000000000000000000000000000000000000000000111111
1111111111111111111111111111111111110000000000011111111111111111110000
0000000000000000000000000000000000000000000000000000000000000000000000
0000000000000001111111000011111111111110000000000000000000000000000000
0000000000000000000000000001111111111111111111111111111111111111111111
1000000000111111111111111111110000000000000000000000000000000000000000
0000000000000000000000000000000000000000000000000111111100001111111111
1110000000000000000000000000000000000000000000000000000000000111111111
1111111111111111111111111111111111100000000011111111111111111111100000
0000000000000000000000000000000000000000000000000000000000000000000000
0000000000000111111100001111111111111000000000000000000000000000000000
0000000000000000000000000111111111111111111111111111111111111111111110
0000000001111111111111111111000000000000000000000000000000000000000000
0000000000000000000000000000000000000000000000011111110000111111111111
1000000000000000000000000000000000000000000000000000000000011111111111
1111111111111111111111111111111111000000001111111111111111111110000000
0000000000000000000000000000000000000000000000000000000000000000000000
0000000000011111111111111111111111100000000000000000000000000000000000
0000000000000000000000111111111111111111111111111111111111111111111100
0000001111111111111111111100000000000000000000000000000000000000000000
0000000000000000000000000000000000000000000001111111111111111111111110
0000000000000000000000000000000000000000000000000000000011111111111111
1111111111111111111111111111111100000000011111111111111111110000000000
0000000000000000000000000000000000000000000000000000000000000000000000
0000000001111111111111111111111110000000000000000000000000000000000000
0000000000000000000011111111111111111111111110011111111111111111110000
0000011111111111111111110000000000000000000000000000000000000000000000
0000000000000000000000000000000000000000000111111111111111111111111000
0000000000000000000000000000000000000000000000000000001111111111111111
1111111100001111111111111111110000000001111111111111111111000000000000
0000000000000000000000000000000000000000000000000000000000000000000000
0000000111111111111111111111111000000000000000000000000000000000000000
0000000000000000001111111111111111111111100000011111111111111111000000
0001111111111111111110000000000000000000000000000000000000000000000000
0000000000000000000000000000000000000000011111111111111111111111100000
0000000000000000000000000000000000000000000000000000111111111111111111
1111100000111111111111111111000000000011111111111111111000000000000000
0000000000000000000000000000000000000000000000000000000000000000000000
0000011111111111111111111111100000000000000000000000000000000000000000
0000000000000000111111111111111111111111000011111111111111111100000000
0001111111111111110000000000000000000000000000000000000000000000000000
0000000000000000000000000000000000000001111111111111111111111110000000
0000000000000000000000000000000000000000000000000011111111111111111111
1111110111111111111111111100000000000111111111111111000000000000000000
0000000000000000000000000000000000000000000000000000000000000000000000
0001111111111111000111111110000000000000000000000000000000000000000000
0000000000000001111111111111111111111111111111111111111111100000000000
0011111111111110000000000000000000000000000000000000000000000000000000
0000000000000000000000000000000000000111111111111000001111111000000000
0000000000000000000000000000000000000000000000000111111111111111111111
1111111111111111111111100000000000000111111111100000000000000000000000
0000000000000000000000000000000000000000000000000000000000000000000000
0111111111111000001111111000000000000000000000000000000000000000000000
0000000000000111111111111111111111111111111111111111111110000000000000
0001111110000000000000000000000000000000000000000000000000000000000000
0000000000000000000000000000000000011111111111100000111111100000000000
0000000000000000000000000000000000000000000000001111111111111111111111
1111111111111111111110000000000000000000000000000000000000000000000000
0000000000000000000000000000000000000000000000000000000000000000000001
1111111111100000111111100000000000000000000000000000000000000000000000
0000000000001111111111111111111111111111111111111111110000000000000000
0000000000000000000000000000000000000000000000000000000000000000000000
0000000000000000000000000000000001111111111111000011111110000000000000
0000000000000000000000000000000000000000000000011111111111111111111111
1111111111111111100000000000000000000000000000000000000000000000000000
0000000000000000000000000000000010000000000000000000000000000000000111
1111111111111111111110000000000000000000000000000000000000000000000000
0000000000011111111111111111111111111111111111111110000000000000000000
0000000000000000000000000000000000000000000000000000000000001111111110
0000000000000000000000000000000111111111111111111111111000000000000000
0000000000000000000000000000000000000000000000111111111111111111111111
1111111111111100000000000000000000000000000000000000000000000000000000
0000000000000000000000111111111111110000000000000000000000000000011111
1111111111111111111000000000000000000000000000000000000000000000000000
0000000000011111111111111111111111111111111111100000000000000000000000
0000000000000000000000000000000000000000000000000000001111111111111111
1000000000000000000000000000011111111111111111111111100000000000000000
0000000000000000000000000000000000000000000000111111111111111111111111
1111111111100000000000000000000000000000000000000000000000000000000000
0000000000000000011111111111111111110000000000000000000000000001111111
1111111111111111100000000000000000000000000000000000000000000000000000
0000000000011111111111111111111111111111111000000000000000000000000000
0000000000000000000000000000000000000000000000000011111111111111111111
1000000000000000000000000000000000000000000000000000000000000000000000
0000000000000000000000000000000000000000000000111111111111111111111111
1111111000000000000000000000000000000000000000000000000000000000000000
0000000000000111111111111111111111110000000000000000000000000000000000
0000000000000000000000000000000000000000000000000000000000000000000000
0000000000011111111111111111111111111110000000000000000000000000000000
0000000000000000000000000000000000000000000000011111111111111111111111
1000000000000000000000000000000000000000000000000000000000000000000000
0000000000000000000000000000000000000000000000011111111111111111111111
1000000000000000000000000000000000000000000000000000000000000000000000
0000000000111111111111111111111111100000000000000000000000000000000000
0000000000000000000000000000000000000000000000000000000000000000000000
0000000000001111111111111111111111000000000000000000000000000000000000
0000000000000000000000000000000000000000000011111111111111111111111111
0000000000000000000000000000000000000000000000000000000000000000000000
0000000000000000000000000000000000000000000000000111111111111111100000
0000000000000000000000000000000000000000000000000000000000000000000000
0000000111111111111111111111111111000000000000000000000000000000000000
0000000000000000000000000000000000000000000000000000000000000000000000
0000000000000000010101010100000000000000000000000000000000000000000000
0000000000000000000000000000000000000000011111111111111111111111111100
0000000000000000000000000000000000000000000000000000000000000000000000
0000000000000000011111100000000000000000000000000000000000000000000000
0000000000000000000000000000000000000000000000000000000000000000000000
0000011111111111100111111111111110000000000000000000000000000000000000
0000000000000000000000000000000000000000000000000111111111000000000000
0000000000000000000000000000000000000000000000000000000000000000000000
0000000000000000000000000000000000000001111111111100001111111111111000
0000000000000000000000000000000000000000000000000000000000000000000000
0000000000000111111111110000000000000000000000000000000000000000000000
0000000000000000000000000000000000000000000000000000000000000000000000
0001111111111110001111111111110000000000000000000000000000000000000000
0000000000000000000000000000000000000000000001111111111111000000000000
0000000000000000000000000000000000000000000000000000000000000000000000
0000000000000000000000000000000000000111111111111101111111111111100000
0000000000000000000000000000000000000000000000000000000000000000000000
0000000001111111111111100000000000000000000000000000000000000000000000
0000000000000000000000000000000000000000000000000000000000000000000000
0111111111111111111111111111000000000000000000000000000000000000000000
0000000000000000000000000000000000000000001111111111111111000000000000
0000000000000000000000000000000000000000000000000000000000000000000000
0000000000000000000000000000000000011111111111111111111111111100000000
0000000000000000000000000000000000000000000000000000000000000000000000
0000001111111111111111000000000000000000000000000000000000000000000000
0000000000000000000000000000000000000000000000000000000000000000000000
1111111111111111111111111100000000000000000000000000000000000000000000
0000000000000000000000000000000000000000111111111111111100000000000000
0000000000000000000000000000000000000000000000000000000000000000000000
0000000000000000000000000000000000111111111111111111111111100000000000
0000000000000000000000000000000000000000000000000000000000000000000000
0000111111111111111100000000000000000000000000000000000000000000000000
0000000000000000000000000000000000000000000000000000000000000000000001
1111111111111111111111100000000000000000000000000000000000000000000000
0000000000000000000000000000000000000011111111111111110000000000000000
0000000000000000000000000000000000000000000000000000000000000000000000
0000000000000000000000000000000001111111111111111111111100000000000000
0000000000000000000000000000000000000000000000000000000000000000000000
0011111111111111110000000000000000000000000000000000000000000000000000
0000000000000000000000000000000000000000000000000000000000000000000011
1111111111111111111000000000000000000000000000000000000000000000000000
0000000000000000000000000000000000001111111111111111000000000000000000
0000000000000000000000000000000000000000000000000000000000000000000000
0000000000000000000000000000000001111111111111111111000000000000000000
0000000000000000000000000000000000000000000000000000000000000000000000
1111111111111111000000000000000000000000000000000000000000000000000000
0000000000000000000000000000000000000000000000000000000000000000000011
1111111111111110000000000000000000000000000000000000000000000000000000
0000000000000000000000000000000000011111111111111000000000000000000000
0000000000000000000000000000000000000000000000000000000000000000000000
0000000000000000000000000000000000111111111111100000000000000000000000
0000000000000000000000000000000000000000000000000000000000000000000001
1111111111111000000000000000000000000000000000000000000000000000000000
0000000000000000000000000000000000000000000000000000000000000000000000
1011111110000000000000000000000000000000000000000000000000000000000000
0000000000000000000000000000000000111111111111000000000000000000000000
0000000000000000000000000000000000000111111111111111111111110000000000
0000000000000000000000000000000000000000000000000000000000000000000000
0000000000000000000000000000000000000000000000000000000000000000000011
1111111111000000000000000000000000000000000000000000000000000000000000
0111111111111111111111110000000000000000000000000000000000000000000000
0000000000000000000000000000000000000000000000000000000000000000000000
0000000000000000000000000000000000111111110000000000000000000000000000
0000000000000000000000000000000000011111111111111111111111000000000000
0000000000000000000000000000000000000000000000000000000000000000000000
0000000000000000000000000000000000000000000000000000000000000000000000
1111000000000000000000000000000000000000000000000000000000000000000001
1111111111111111111111000000000000000000000000000000000000000000000000
0000000000000000000000000000000000000000000000000000000000000000000000
0000000000000000000000000000000000000000000000000000000000000000000000
0000000000000000000000000000000001111111111111111111111100000000000000
0000000000000000000000000000000000000000000000000000000000000000000000
0000000000000000000000000000000000000000000000000000000000000000000000
0000000000000000000000000000000000000000000000000000000000000000000111
1111111111111111111100000000000000000000000000000000000000000000000000
0000000000000000000000000000000000000000000000000000000000000000000000
0000000000000000000000000000000000000000000000000000000000000000000000
0000000000000000000000000000000111111111111111111111110000000000000000
0000000000000000000000000000000000000000000000000000000000000000000000
0000000000000000000000000000000000000000000000000000000000000000000000
0000000000000000000000000000000000000000000000000000000000000000011111
1111111111111111110000000000000000000000000000000000000000000000000000
0000000000000000000000000000000000000000000000000000000000000000000000
0000000000000000000000000000000000000000000000000000000000000000000000
0000000000000000000000000000011111111111111111111111000000000000000000
0000000000000000000000000000000000000000000000000000000000000000000000
0000000000000000000000000000000000000000000000000000000000000000000000
0000000000000000000000000000000000000000000000000000000000000001111111
1111111111111111000000000000000000000000000000000000000000000000000000
0000000000000000000000000000000000000000000000000000000000000000000000
0000000000000000000000000000000000000000000000000000000000000000000000
0000000000000000000000000001111111111111111111111100000000000000000000
0000000000000000000000000000000000000000000000000000000000000000000000
0000000000000000000000000000000000000000000000000000000000000000000000
0000000000000000000000000000000000000000000000000000000000000111111111
1111111111111100000000000000000000000000000000000000000000000000000000
0000000000000000000000000000000000000000000000000000000000000000000000
0000000000000000000000000000000000000000000000000000000000000000000000
0000000000000000000000000111111111111111111111110000000000000000000000
0000000000000000000000000000000000000000000000000000000000000000000000
0000000000000000000000000000000000000000000000000000000000000000000000
0000000000000000000000000000000000000000000000000000000000011111111111
1111111111110000000000000000000000000000000000000000000000000000000000
0000000000000000000000000000000000000000000000000000000000000000000000
0000000000000000000000000000000000000000000000000000000000000000000000
0000000000000000000000011111111111111111111111000000000000000000000000
0000000000000000000000000000000000000000000000000000000000000000000000
0000000111111000000000000000000000000000000000000000000000000000000000
0000000000000000000000000000000000000000000000000000000001111111111111
1111111111000000000000000000000000000000000000000000000000000000000000
0000000000000000000000000000000000000000111111110000000000000000000000
0000000000000000000000000000000000000000000000000000000000000000000000
0000000000000000000001111111111111111111111100000000000000000000000000
0000000000000000000000000000000000000000000000000000000000000000000000
0001111111111000000000000000000000000000000000000000000000000000000000
0000000000000000000000000000000000000000000000000000000111111111111111
1111111100000000000000000000000000000000000000000000000000000000000000
0000000000000000000000000000000000001111111111110000000000000000000000
0000000000000000000000000000000000000000000000000000000000000000000000
0000000000000000000111111111111111111111110000000000000000000000000000
0000000000000000000000000000000000000000000000000000000000000000000000
1111111111110000000000000000000000000000000000000000000000000000000000
0000000000000000000000000000000000000000000000000000011111111111111111
1111110000000000000000000000000000000000000000000000000000000000000000
0000000000000000000000000000000000111111111111000000000000000000000000
0000000000000000000000000000000000000000000000000000000000000000000000
0000000000000000011111111111111111111111000000000000000000000000000000
0000000000000000000000000000000000000000000000000000000000000000000011
1111111111000000000000000000000000000000000000000000000000000000000000
0000000000000000000000000000000000000000000000000001111111111111111111
1111000000000000000000000000000000000000000000000000000000000000000000
0000000000000000000000000000000001111111111100000000000000000000000000
0000000000000000000000000000000000000000000000000000000000000000000000
0000000000000000000000000000000000000000000000000000000000000000000000
0000000000000000000000000000000000000000000000000000000000000000000111
1111111000000000000000000000000000000000000000000000000000000000000000
0000000000000000000000000000000000000000000000000000000000000000000000
0000000000000000000000000000000000000000000000000000000000000000000000
0000000000000000000000000000000011111111000000000000000000000000000000
0000000000000000000000000000000000000000000000000000000000000000000000
0000000000000000000000000000000000000000000000000000000000000000000000
0000000000000000000000000000000000000000000000000000000000000000000111
1111000000000000000000000000000000000000000000000000000000000000000000
0000000000000000000000000000000000000000000000000000000000000000000000
0000000000000000000000000000000000000000000000000000000000000000000000
0000000000000000000000000000000000000000000000000000000000000000000000
0000000000000000000000000000000000000000000000000000000000000000000000
0000000000000000000000000000000000000000000000000000000000000000000000
0000000000000000000000000000000000000000000000000000000000000000000000
0000000000000000000000000000000000000000000000000000000000000000000000
0000000000000000000000000000000000000000000000000000000000000000000000
0000000000000000000000000000000000000000000000000000000000000000000000
0000000000000000000000000000000000000000000000000000000000000000000000
0000000000000000000000000000000000000000000000000000000000000000000000
0000000000000000000000000000000000000000000000000000000000000000000000
0000000000000000000000000000000000000000000000000000000000000000000000
0000000000000000000000000000000000000000000000000000000000000000000000
0000000000000000000000000000000000000000000000000000000000000000000000
0000000000000000000000000000000000000000000000000000000000000000000000
0000000000000000000000000000000000000000000000000000000000000000000000
0000000000000000000000000000000000000000000000000000000000000000000000
0000000000000000000000000000000000000000000000000000000000000000000000
0000000000000000000000000000000000000000000000000000000000000000000000
0000000000000000000000000000000000000000000000000000000000000000000000
0000000000000000000000000000000000000000000000000000000000000000000000
0000000000000000000000000000000000000000000000000000000000000000000000
0000000000000000000000000000000000000000000000000000000000000000000000
0000000000000000000000000000000000000000000000000000000000000000000000
0000000000000000000000000000000000000000000000000000000000000000000000
0000000000000000000000000000000000000000000000000000000000000000000000
0000000000000000000000000000000000000000000000000000000000000000000000
0000000000000000000000000000000000000000000000000000000000000000000000
0000000000