P1
# Created by GIMP version 2.10.34 PNM plug-in
50 50
0000000000000000000000000000000000000000000000000000000000000000000000
0000000000000000000000000000000000000000000000000000000000000000000000
0000000000000000000000000000000000000000000000000000000000000000000000
0000000000000000000000000000000000000000000000000000000000000000000000
0000000000000000000000000000000000000000000000000000000000000000000000
0000000000000000000000000000000000000000000000000000000000000000000000
0000000000000000000000000000000000000000000000000000000000000000000000
0000000000000000000000000011111000000000000000000000000000000000000000
0111111111111000000000000000000000000000000000000111111111111111100000
0000000000000000000000000000111111111111111110000000000000000000000000
0000000111111000011111111100000000000000000000000000000001111100000111
1111110000000000000000000000000000001111110000011111111100000000000000
0000000000000000111111000001111111111000000000000000000000000000001111
1100000111111111000000000000000000000000000000011111000001111111111000
0000000000000000000000000011111111111100001111000000000000000000000000
0000000111111111000000111100000000000000000000000000000001111111100000
0011110000000000000000000000000000000011111110000000111000000000000000
0000000000000000000111111000001111100000000000000000000000000000000000
1111111111111100000000000000000000000000000000000000111111111110000011
1111111111000000000000000000000000001110100000111111111111111100000000
0000000000000000000000000111111111111111111000000000000000000000000000
0000111111111111111111100000000000000000000000000000001111111111111111
1110000000000000000000000000000000111111111111111111110000000000000000
0000000000000011111111111111111110000000000000000000000000000000111111
1111111111111000000000000000000000000000000011111111111111111110000000
0000000000000000000000001111111111111111111000000000000000000000000000
0000111111111111111111100000000000000000000000000000001111111111111111
1110000000000000000000000000000000111111111111111111110000000000000000
0000000000000011111111111111111110000000000000000000000000000000011111
1111111111110000000000000000000000000000000000010010100100101000000000
0000000000000000000000000000000000000000000000000000000000000000000000
0000000000000000000000000000000000000000000000000000000000000000000000
0000000000000000000000000000000000000000000000000000000000000000000000
0000000000000000000000000000000000000000000000000000000000000000000000
0000000000000000000000000000000000000000000000000000000000000000000000
00000000000000000000000000000000000000000000000000