P1
# Created by GIMP version 2.10.34 PNM plug-in
120 84
0000000000000000000000000000000000000000000000000000000000000000000000
0000000000000000000000000000000000000000000000000000000000000000000000
0000000000000000000000000000000000000000000000000000000000000000000000
0000000000000000000000000000000000000000000000000000000000000000000000
0000000000000000000000000000000000000000000000000000000000000000000000
0000000000000000000000000000000000000000000000000000000000000000000000
0000000000000000000000000000000000000000000000000000000000000000000000
0000000000000000000000000000000000000000000000000000000000000000000000
0000000000000000000000000000000000000000000000000000000000000000000000
0000000000000000000000000000000000000000000000000000000000000000000000
0000000000000000000000000000000000000000000000000000000000000000000000
0000000000000000000000000000000000000000000000000000000000000000000000
0000000000000000000000000000000000000000000000000000000000000000000000
0000000000000000000000000000000000000000000000000000000000000000000000
0000000000000000000000000000000000000000000000000000000000000000000000
0000000000000000000000000000000000000000000000000000000000000000000000
0000000000000000000000000000000000000000000000000000000000000000000000
0000000000000000000000000000000000000000000000000000000000000000000000
0000000000000000000000000000000000000000000000000000000000000000000000
0000000000000000000000000000000000000000000000000000100000000000000000
0000000000000000000000000000000000000000000000000000000000000000000000
0000000000000000110000000000000011110000000000000000000000000000000000
0000000000000000000000000000000000000000000000000000000000000000000110
0000000011111111110000000000000000000000000000000000000000000000000000
0000000000000000000000000000000000000000000000111100010001111111111111
0000000000000000000000000000000000000000000000000000000000000000000000
0000000000000000000000000011111001111111111111111111000000000000000000
0000000000000000000000000000000000000000000000000000000000000000000000
0000101111111111111111111111111100000000000000000000000000000000000000
0000000000000000000000000000000000000000000000000000111111111111111111
1111111111110000000000000000000000000000000000000000000000000000000000
0000000000000000000000000000001111111111111111111111111111110000000000
0000000000000000000000000000000000000000000000000000000000000000000000
0000000001111111111111111111111111111000000000000000000000000000000000
0000000000000000000000000000000000000000000000000000000000011111111111
1111111111111000000000000000000000000000000000000000000000000000000000
0000000000000000000000000000000000000001111111111111111111100000000000
0000000000000000000000000000000000000000000000000000000000000000000000
0000000000000000001111111111111111100000000000000000000000000000000000
0000000000000000000000000000000000000000000000000000000000000000000011
1111111111111100000000000000000000000000000000000000000000000000000000
0000000000000000000000000000000000000000000000001111111111101111000000
0000000000000000000000000000000000000000000000000000000000000000000000
0000000000000000000000000000111111111110111110000000000000000000000000
0000000000000000000000000000000000000000000000000000000000000000000000
0000000001111111110001110000000000000000000000000000000000000000000000
0000000000000000000000000000000000000000000000000000000000011111111100
0111000000000000000000000000000000000000000000000000000000000000000000
0000000000000000000000000000000000000011111111110000111000000000000000
0000000000000000000000000000000000000000000000000000000000000000000000
0000000000000000001111111111000011000000000000000000000000000000000000
0000000000000000000000000000000000000000000000000000000000000000000011
1111111000000110000000000000000000000000000000000000000000000000000000
0000000000000000000000000000000000000000000000000111111100000000000000
0000000000000000000000000000000000000000000000000000000000000000000000
0000000000000000000000000000000111000000000000000000000000000000000000
0000000000000000000000000000000000000000000000000000000000000000000001
1111111111000000000000000000000000000000001111111111100000000000000000
0000000000000000000000000000000000000000000000001111111111111100000000
0000000000000000000001111111111111100000000000000000000000000000000000
0000000000000000000000000001111111111111111100000000000000000000000000
1111111111111111100000000000000000000000000000000000000000000000000000
0000001111111111111111111000000000000000000000000111111111111111111100
0000000000000000000000000000000000000000000000000000000011111111111111
1111110000000000000000000000011111111111111111111000000000000000000000
0000000000000000000000000000000000011111111111111111111100000000000000
0000000011111111111111111111100000000000000000000000000000000000000000
0000000000000001111111111111111111111000000000000000000000111111111111
1111111111000000000000000000000000000000000000000000000000000000011111
1111111010010111100000000000000000000011111111111101001011110000000000
0000000000000000000000000000000000000000000001111111110000000000001110
0000000000000000011111111110000000000001100000000000000000000000000000
0000000000000000000000001111111110000000000000001000000000000000000111
1111110000000000000011000000000000000000000000000000000000000000000000
0000111111111000000000000000110000000000000000011111111100000000000000
0110000000000000000000000000000000000000000000000000101111111110000000
0000000001000000000000000101111111110000000000000000100000000000000000
0000000000000000000000000000011111111111111000000000000000011000000000
0111111111111111000000000000000010000000000000000000000000000000000000
0000000011111111111111100000000000000001000000000001111111111111110000
0000000000001000000000000000000000000000000000000000000000111111111111
1110000000000000000100000000000111111111111111000000000000000010000000
0000000000000000000000000000000000000111111111111111110000000000000011
0000000000111111111111111110000000000000011000000000000000000000000000
0000000000000000001111111111111111100000000000011100000000001111111111
1111111100000000000011000000000000000000000000000000000000000000000111
1111111111111111100000001111100000000000111111111111111111110000001111
1100000000000000000000000000000000000000000000011111111111111111111111
1111111100000000000011111111111111111111111111111110000000000000000000
0000000000000000000000000001111111111111111111111111111111100000000000
1111111111111111111111111111111100000000000000000000000000000000000000
0000000111111111111111111111111111111110000000000011111111111111111111
1111111111100000000000000000000000000000000000000000000001111111111111
1111111111111111111000000000001111111111111111111111111111111100000000
0000000000000000000000000000000000000111111111111111111111111111111110
0000000000111111111111111111111111111111110000000000000000000000000000
0000000000000000011111111111111111111111111111111000000000001111111111
1111111111111111111111000000000000000000000000000000000000000000000111
1111111111111111111111111111100000000000111111111111111111111111111111
1100000000000000000000000000000000000000000000011111111111111111111111
1111111110000000000011111111111111111111111111111111000000000000000000
0000000000000000000000000001111111111111111111111111111111100000000000
1111111111111111111111111111111100000000000000000000000000000000000000
0000000111111111111111111111111111111110000000000011111111111111111111
1111111111100000000000000000000000000000000000000000000001111111111111
1111111111111111110000000000001111111111111111111111111111111000000000
0000000000000000000000000000000000000111111111111111111111111111111100
0000000000111111111111111111111111111111100000000000000000000000000000
0000000000000000001111111111111111111111111111110000000000001111111111
1111111111111111111110000000000000000000000000000000000000000000000011
1111111111111111111111111111000000000000011111111111111111111111111111
1000000000000000000000000000000000000000000000001111111111111111111111
1111111100000000000001111111111111111111111111111100000000000000000000
0000000000000000000000000000001111111111111111111111111110000000000000
0001111111111111111111111111110000000000000000000000000000000000000000
0000000000000011111111111101111111111000000000000000000001111111111100
1111111111000000000000000000000000000000000000000000000000000000111111
1111100011111111100000000000000000000111111111110001111111110000000000
0000000000000000000000000000000000000000000011111111111000111111111000
0000000000000000011111111111000111111111000000000000000000000000000000
0000000000000000000000001111111111100111111111100000000000000000000111
1111111100111111111100000000000000000000000000000000000000000000000000
0000111111111110001111111110000000000000000000011111111111000111111110
0000000000000000000000000000000000000000000000000000000111111111100011
1111110000000000000000000001111111111000011111111000000000000000000000
0000000000000000000000000000000000111111111100000111111000000000000000
0000000111111111100000111111100000000000000000000000000000000000000000
0000000000000001111111110000000000000000000000000000000000111111111000
0000000000000000000000000000000000000000000000000000000000000000000111
1100000000000000000000000000000000000000111110000000000000000000000000
0000000000000000000000000000000000000000000000000000000000000000000000
0000000000000000000000000000000000000000000000000000000000000000000000
0000000000000000000000000000000000000000000000000000000000000000000000
0000000000000000000000000000000000000000000000000000000000000000000000
0000000000000000000000000000000000000000000000000000000000000000000000
0000000000000000000000000000000000000000000000000000000000000000000000
0000000000000000000000000000000000000000000000000000000000000000000000
0000000000000000000000000000000000000000000000000000000000000000000000
0000000000000000000000000000000000000000000000000000000000000000000000
0000000000000000000000000000000000000000000000000000000000000000000000
0000000000000000000000000000000000000000000000000000000000000000000000
0000000000000000000000000000000000000000000000000000000000000000000000
0000000000000000000000000000000000000000000000000000000000000000000000
0000000000000000000000000000000000000000000000000000000000000000000000