P1
# Created by GIMP version 2.10.34 PNM plug-in
150 150
0000000000000000000000000000000000000000000000000000000000000000000000
0000000000000000000000000000000000000000000000000000000000000000000000
0000000000000000000000000000000000000000000000000000000000000000000000
0000000000000000000000000000000000000000000000000000000000000000000000
0000000000000000000000000000000000000000000000000000000000000000000000
0000000000000000000000000000000000000000000000000000000000000000000000
0000000000000000000000000000000000000000000000000000000000000000000000
0000000000000000000000000000000000000000000000000000000000000000000000
0000000000000000000000000000000000000000000000000000000000000000000000
0000000000000000000000000000000000000000000000000000000000000000000000
0000000000000000000000000000000000000000000000000000000000000000000000
0000000000000000000000000000000000000000000000000000000000000000000000
0000000000000000000000000000000000000000000000000000000000000000000000
0000000000000000000000000000000000000000000000000000000000000000000000
0000000000000000000000000000000000000000000000000000000000000000000000
0000000000000000000000000000000000000000000000000000000000000000000000
0000000000000000000000000000000000000000000000000000000000000000000000
0000000000000000000000000000000000000000000000000000000000000000000000
0000000000000000000000000000000000000000000000000000000000000000000000
0000000000000000000000000000000000000000000000000000000000000000000000
0000000000000000000000000000000000000000000000000000000000000000000000
0000000000000000000000000000000000000000000000000000000000000000000000
0000000000000000000000000000000000000000000000000000000000000000000000
0000000000000000000000000000000000000000000000000000000000000000000000
0000000000000000000000000000000000000000000000000000000000000000000000
0000000000000000000000000000000000000000000000000000000000000000000000
0000000000000000000000000000000000000000000000000000000000000000000000
0000000000000000000000000000000000000000000000000000000000000000000000
0000000000000000000000000000000000000000000000000000000000000000000000
0000000000000000000000000000000000000000000000000000000000000000000000
0000000000000000000000000000000000000000000000000000000000000000000000
0000000000000000000000000000000000000000000000000000000000000000000000
0000000000000000000000000000000000000000000000000000000000000000000000
0000000000000000000000000000000000000000000000000000000000000000000000
0000000000000000000000000000000000000000000000000000000000000000000000
0000000000000000000000000000000000000000000000000000000000000000000000
0000000000000000000000000000000000000000000000000000000000000000000000
0000000000000000000000000000000000000000000000000000000000000000000000
0000000000000000000000000000000000000000000000000000000000011111111111
1111111111111111110000000000000000000000000000000000000000000000000000
0000000000000000000000000000000000000000000000000000000000000000000001
1111111111111111111111111111000000000000000000000000000000000000000000
0000000000000000000000000000000000000000000000000000000000000000000000
0000000001111111111111111111111111111100000000000000000000000000000000
0000000000000000000000000000000000000000000000000000000000000000000000
0000000000000000000111111111111111111111111111110000000000000000000000
0000000000000000000000000000000000000000000000000000000000000000000000
0000000000000000000000000000011111111111111111111100001111000000000000
0000000000000000000000000000000000000000000000000000000111111111111111
1111100000000000000000000000000000000001111111111111111111000000011100
0000000000000000000000000000000000000000000000000000000000000000011111
1111111111111110000000000000000000000000000000000111111111111111111100
0000001100000000000000000000000000000000000000000000000000000000000000
0000011111111111111111111000000000000000000000000000000000011111111111
1111111100000000110000000000000000000000000000000000000000000000000000
0000000000000001111111111111111111100000000000000000000000000000000001
1111111111111111110000000011000000000000000000000000000000000000000000
0000000000000000000000000111111111111111111110000000000000000000000000
0000000001111111111111111111000000001100000000000000000000000000000000
0000000000000000000000000000000000011111111111111111111000000000000000
0000000000000000000111111111111111111100000000110000000000000000000000
0000000000000000000000000000000000000000000001111111111111111111100000
0000000000000000000000000000011111111111111111111000000111000000000000
0000000000000000000000000000000000000000000000000000000111111111111111
1111100000000000000000000000000000000001111111111111111111110000111100
0000000000000000000000000000000000000000000000000000000000000000011111
1111111111111110000000000000000000000000000000000111111111111111111111
1111111100000000000000000000000000000000000000000000000000000000000000
0000011111111111111111111000000000000000000000000000000000011111111111
1111111111111111110000000000000000000000000000000000000000000000000000
0000000000000001111111111111111111100000000000000000000000000000000001
1111111111111111111111111111000000000000000000000000000000000000000000
0000000000000000000000000111111111111111111110000000000000000000000000
0000000001111111111111111111111111111100000000000000000000000000000000
0000000000000000000000000000000000011111111111111111111000000000000000
0000000000000000000111111111111111111111111111110000000000000000000000
0000000000000000000000000000000000000000000001111111111111111111100000
0000000000000000000000000000011111111111111111111111111111000000000000
0000000000000000000000000000000000000000000000000000000111111111111111
1111100000000000000000000000000000000000000000000000000000000000000000
0000000000000000000000000000000000000000000000000000000000000000011111
1111111111111110000000000000000000000000000000000000000000000000000000
0000000000000000000000000000000000000000000000000000000000000000000000
0000011111111111111111111000000000000000000000000000000000000000000000
0000000000000000000000000000000000000000000000000000000000000000000000
0000000000000001111111111111111111100000000000000000000000000000000000
0000000000000000000000000000000000000000000000000000000000000000000000
0000000000000000000000000111111111111111111110000000000000000000000000
0000000000000000000000000000000000000000000000000000000000000000000000
0000000000000000000000000000000000011111111111111111111000000000000000
0000000000000000000000000000000000000000000000000000000000000000000000
0000000000000111111010000000000000000000000001111111111111111111100000
0000000000000000000000000000000000000000000000000000000000000000000000
0000000000000000000111111111111111000000000000000000000111111111111111
1111100000000000000000000000000000000000000000000000000000000000000000
0000000000000000000000000001111111111111111111000000000000000000011111
1111111111111110000000000000000000000000000000000000000000000000000000
0000000000000000000000000000000000011111111111111111111111000000000000
0000011111111111111111111000000000000000000000000000000000000000000000
0000000000000000000000000000000000000000000011111111111111111111111110
0000000000000001111111111111111111100000000000000000000000000000000000
0000000000000000000000000000000000000000000000000000011111111111111111
1111111111000000000000000111111111111111111110000000000000000000000000
0000000000000000000000000000000000000000000000000000000000000011111111
1111111111111111111110000000000000011111111111111111111000000000000000
0000000000000000000000000000000000000000000000000000000000000000000000
0111111111111111111111111111111100000000000001111111111111111111100000
0000000000000000000000000000000000000000000000000000000000000000000000
0000000000011111111111111111111111111111110000000000000111111111111111
1111100000000000000000000000000000000000000000000000000000000000000000
0000000000000000000001111111111111111111111111111111000000000000011111
1111111111111110000000000000000000000000000000000000000000000000000000
0000000000000000000000000000001111111111111111111111111111111110000000
0000011111111111111111111000000000000000000000000000000000000000000000
0000000000000000000000000000000000000000111111111111111111111111111111
1110000000000001111111111111111111100000000000000000000000000000000000
0011111111111111111111111111100000000000000000000011111111111111111111
1111111111111000000000000111111111111111111110000000000000000000000000
0000000000001111111111111111111111111110000000000000000000000111111111
1111111111111111111111000000000000011111111111111111111000000000000000
0000000000000000000000111111111111111111111111111000000000000000000000
0111111111111111111111111111111100000000000001111111111111111111100000
0000000000000000000000000000000011111111111111111111111111100000000000
0000000000011111111111111111111111111111110000000000000111111111111111
1111100000000000000000000000000000000000001111111111111111111111111110
0000000000000000000000111111111111111111111111111110000000000000011111
1111111111111110000000000000000000000000000000000000111111111111111111
1111111110000000000000000000000001111111111111111111111111110000000000
0000011111111111111111111000000000000000000000000000000000000011111111
1111111111111111111000000000000000000000000011111111111111111111111110
0000000000000000000000000000000000000000000000000000000000000000000000
0011111111111111111111111111100000000000000000000000000111111111111111
1111111100000000000000000000000000000000000000000000000000000000000000
0000000000001111111111111111111111111110000000000000000000000000000111
1111111111111111000000000000000000000000000000000000000000000000000000
0000000000000000000000111111111111111111111111111000000000000000000000
0000000001111111111111101000000000000000000000000000000000000000000000
0000000000000000000000000000000011111111111111111111111111100000000000
0000000000000000000000011111101000000000000000000000000000000000000000
0000000000000000000000000000000000000000001111111111111111111111111110
0000000000000000000000000000000000000000000000000000000000000000000000
0000000000000000000000000000000000000000000000000000111111111111111111
1111111110000000000000000000000000000000000000000000000000000000000000
0000000000000000000000000000000000000000000000000000000000000011111111
1111111111111111111000000000000000000000000000000000000000000000000000
0000000000000000000000000000000000000000000000000000000000000000000000
0011111111111111111111111111100000000000000000000000000000000000000000
0000000000000000000000000000000000000000000000000000000000000000000000
0000000000001111111111111111111111111110000000000000000000000000000000
0000000000000000000000000000000000000000000000000000000000000000000000
0000000000000000000000111111111111111111111111111000000000000000000000
0000000000000000000000000000000000000000000000000000000000000000000000
0000000000000000000000000000000011111111111111111111111111100000000000
0000000000000000000000000000000000000000000000000000000000000000000000
0000000000000000000000000000000000000000001111111111111111111111111110
0000000000000000000000000000000000000000000000000000000000000000000000
0000000000000000000000000000000000000000000000000000111111111111111111
1111111110000000000000000000000000001111010000000000000000000000000000
0000000000000000000000000000000000000000000000000000000000000011111111
1111111111111111111000000000000000000000001111111111111000000000000000
0000000000000000000000000000000000000000000000000000000000000000000000
0011111111111111111111111111100000000000000000000011111111111111111000
0000000000000000000000000000000000000000000000000000000000000000000000
0000000000001111111111111111111111111110000000000000000000111111111111
1111111110000000000000000000000000000000000000000000000000000000000000
0000000000000000000000111111111111111111111111111000000000000000000011
1111111111111111111100000000000000000000000000000000000000000000000000
0000000000000000000000000000000011111111111111111111111111100000000000
0000001111111111111111111111110000000000000000000000000000000000000000
0000000000000000000000000000000000000000001111111111111111111111111110
0000000000000000111111111111111111111111100000000000000000000000000000
0000000000000000000000000000000000000000000000000000111111111111111111
1111111110000000000000000111111111111100000011111111000000000000000000
0000000000000000000000000000000000000000000000000000000000000011111111
1111111111111111111000000000000000011111111111100000000111111100000000
0000000000000000000000000000000000000000000000000000000000000000000000
0011111111111111111111111111100000000000000011111111111100000000001111
1110000000000000000000000000000000000000000000000000000000000000000000
0000000000001111111111111111111111111110000000000000001111111111110000
0000001111111000000000000000000000000000000000000000000000000000000000
0000000000000000000000111111111111111111111111111000000000000000111111
1111110000000000111111100000000000000000000000000000000000000000000000
0000000000000000000000000000000011111111111111111111111111100000000000
0000111111111111000000000011111110000000000000000000000000000000000000
0000000000000000000000000000000000000000001111111111111111111111111110
0000000000000001111111111100000000001111110000000000000000000000000000
0000000000000000000000000000000000000000000000000000000000000000000000
0000000000000000000000000111111111111000000000111111000000000000000000
0000000000000000000000000000000000000000000000000000000000000000000000
0000000000000000000000000000000000011111111111100000000111111100000000
0000000000000000000000000000000000000000000000000000000000000000000000
0000000000000000000000000000000000000000000000111111111111100001111111
1000000000000000000000000000000000000000000000000000000000000000000000
0000000000000000000000000000000000000000000000000000000011111111111111
1111111111000000000000000000000000000000000000000000000000000000000000
0000000000000000000000000000000000000000000000000000000000000000000011
1111111111111111111100000000000000000000000000000000000000000000000000
0000000000000000000000000000000000000000000000000000000000000000000000
0000000011111111111111111111000000000000000000000000000000000000000000
0000000000000000000000000000000000000000000000000000000000000000000000
0000000000000000000011111111111111111100000000000000000000000000000000
0000000000000000000000000000000000000000000000000000000000000000000000
0000000000000000000000000000000011111111111110000000000000000000000000
0000000000000000000000000000000000000000000000000000000000000000000000
0000000000000000000000000000000000000000000000111101000000000000000000
0000000000000000000000000000000000000000000000000000000000000000000000
0000000000000000000000000000000000000000000000000000000000000000000000
0000000000000000000000000111111000000000000000000000000000000000000000
0000000000000000000000000000000000000000000000000000000000000000000000
0000000000000000000000000000000111111111111111000000000000000000000000
0000000000000000000000000000000000000000000000000000000000000000000000
0000000000000000000000000000000000000001111111111111111111000000000000
0000000000000000000000000000000000000000000000000000000000000000000000
0000000000000000000000000000000000000000000000011111111111111111111111
0000000000000000000000000000000000000000000000000000000000000000000000
0000000000000000000000000000000000000000000000000000000011111111111111
1111111111100000000000000000000000000000000000000000000000000000000000
0000000000000000000000000000000000000000000000000000000000000000111111
1111111111111111111111000000000000000000000000000000011111111111111111
1111111111111111111111110000000000000000000000000000000000000000000000
0000111111111111111111111111111111000000000000000000000000000001111111
1111111111111111111111111111111111000000000000000000000000000000000000
0000000000001111111111111111111111111111111100000000000000000000000000
0001111111111111111111111111111111111111111100000000000000000000000000
0000000000000000000000111111111111111111111111111111111000000000000000
0000000000000111111111111111111111111111111111111111110000000000000000
0000000000000000000000000000000111111111111111111111111111111111110000
0000000000000000000000011111111111111111111111111111111111111111000000
0000000000000000000000000000000000000000111111111111111111111111111111
1111111000000000000000000000000001111111111100000111111111111111111111
1111000000000000000000000000000000000000000000000011111111111111111111
1111111111111111100000000000000000000000000111111111000000000111111111
1111111111111100000000000000000000000000000000000000000000011111111111
1111111111111111111111111111000000000000000000000000011111111100000000
0111110000000000000000110000000000000000000000000000000000000000000001
1111111111111111111111111111111111111100000000000000000000000001111111
1100000000011111000000000000000011000000000000000000000000000000000000
0000000011111111111111111111111111111111111111111000000000000000000000
0001111111110000000001111100000000000000001100000000000000000000000000
0000000000000000001111111111111111111111100000000111111111100000000000
0000000000000111111111000000001111110000000000000000110000000000000000
0000000000000000000000000000111111111111111111110000000000001111111110
0000000000000000000000011111111111000000111111000000000000000011000000
0000000000000000000000000000000000000011111111111111111110000000000000
0011111110000000000000000000000001111111111111111111111100000000000000
0011000000000000000000000000000000000000000000011111111111111111110000
0000000000000111111100000000000000000000000111111111111111111111110000
0000000000001100000000000000000000000000000000000000000001111111111111
1111100000000000000000001111110000000000000000000000011111111111111111
1111110000000000000000110000000000000000000000000000000000000000000111
1111111111111100000000000000000000011111000000000000000000000001111111
1111111111111111000000000000000011000000000000000000000000000000000000
0000000111111111111111110000000000000000000001111100000000000000000000
0001111111111111111111111100000000000000001100000000000000000000000000
0000000000000000011111111111111110000000000000000000000011110000000000
0000000000000111111111111111111111110000000000000000110000000000000000
0000000000000000000000000001111111111111111000000000000000000000001111
0000000000000000000000011111111111111111111111111111111111111111000000
0000000000000000000000000000000000000011111111111111100000000000000000
0000001110000000000000000000000001111111111111111111111111111111111111
1111000000000000000000000000000000000000000000001111111111111110000000
0000000000000000111000000000000000000000000111111111111111111111111111
1111111111111100000000000000000000000000000000000000000000111111111111
1110000000000000000000000011100000000000000000000000011111111111111111
1111111111111111111111110000000000000000000000000000000000000000000011
1111111111111000000000000000000000001110000000000000000000000001111111
1111111111111111111111111111111111000000000000000000000000000000000000
0000000011111111111111100000000000000000000000111000000000000000000000
0000000000000000000000000000000000000000000000000000000000000000000000
0000000000000000000111111111111110000000000000000000000011000000000000
0000000000000000000000000000000000000000000000000000000000000000000000
0000000000000000000000000000011111111111111100000000000000000000011100
0000000000000000000000000000000000000000000000000000000000000000000000
0000000000000000000000000000000000000000111111111111110000000000000000
0000011000000000000000000000000000000000000000000000000000000000000000
0000000000000000000000000000000000000000000000000011111111111111000000
0000000000000001100000000000000000000000000000000000000000000000000000
0000000000000000000000000000000000000000000000000000000000000111111111
1111100000000000000000001100000000000000000000000000000000000000000000
0000000000000000000000000000000000000111111111111111111111111111100000
0011111111111111000000000000000001100000000000000000000000000000000000
0000000000000000000000000000000000000000000000011111111111111111111111
1111100000000111111111111110000000000000001110000000000000000000000000
0000000000000000000000000000000000000000000000000000000001111111111111
1111111111111110000000011111111111111100000000000011100000000000000000
0000000000000000000000000000000000000000000000000000000000000000000111
1111111111111111111111111000000000011111111111111110000000011110000000
0000000000000000000000000000000000000000000000000000111100000000000000
0000000111111111111111111111111111100000000000111111111111111111111111
1000000000000000000000000000000000000000000000000000000000001111111110
0000000000000000011111111111111111111111111110000000000001111111111111
1111111111000000000000000000000000000000000000000000000000000000000001
1111111111000000000000000001111111111111111111111111111000000000000001
1111111111111111110000000000000000000000000000000000000000000000000000
0000000011111111111110000000000000000111111111111111111111111111100000
0000000000011111111111111100000000000000000000000000000000000000000000
0000000000000000011111111111111100000000000000011111111111111111111111
1111100000000000000000000111111000000000000000000000000000000000000000
0000000000000000000000000001111111111111110000000000000001111111111111
1111111111111110000000000000000000000000000000000000000000000000000000
0000000000000000000000000000000000000111111111111111000000000000000111
1111111111111111111111111000000000000000000000000000000000000000000000
0000000000000000000000000000000000000000000000001111111111111000000000
0000000111111111111111111111111111100000000000000000000000000000000000
0000000000000000000000000000000000000000000000000000000000111111111111
1000000000000000011111111111111111111111111110000000000000000000000000
0000000000000000000000000000000000000000000000000000000000000000000001
1111111111000000000000000001111111111111111111111111111000000000000000
0000000000000000000000000000000000000000000000000000000000000000000000
0000000000111111111000000000000000000111111111111111111111111111100000
0000000000000000000000000000000000000000000000000000000000000000000000
0000000000000000000000011110000000000000000000011111111111111111111111
1111100000000000000000000000000000000000000000000000000000000000000000
0000000000000000000000000000000000000000000000000000000000000000000000
0000000000000000000000000000000000000000000000000000000000000000000000
0000000000000000000000000000000000000000000000000000000000000000000000
0000000000000000000000000000000000000000000000000000000000000000000000
0000000000000000000000000000000000000000000000000000000000000000000000
0000000000000000000000000000000000000000000000000000000000000000000000
0000000000000000000000000000000000000000000000000000000000000000000000
0000000000000000000000000000000000000000000000000000000000000000000000
000000000000000000000000000000