P1
# Created by GIMP version 2.10.34 PNM plug-in
100 133
0000000000000000000000000000000000000000000000000000000000000000000000
0000000000000000000000000000000000000000000000000000000000000000000000
0000000000000000000000000000000000000000000000000000000000000000000000
0000000000000000000000000000000000000000000000000000000000000000000000
0000000000000000000000000000000000000000000000000000000000000000000000
0000000000000000000000000000000000000000000000000000000000000000000000
0000000000000000000000000000000000000000000000000000000000000000000000
0000000000000000000000000000000000000000000000000000000000000000000000
0000000000000000000000000000000000000000000000000000000000000000000000
0000000000000000000000000000000000000000000000000000000000000000000000
0000000000000000000000000000000000000000000000000000000000000000000000
0000000000000000000000000000000000000000000000000000000000000000000000
0000000000000000000000000000000000000000000000000000000000000000000000
0000000000000000000000000000000000000000000000000000000000000000000000
0000000000000000000000000000000000000000000000000000000000000000000000
0000000000000000000000000000000000000000000000000000000000000000000000
0000000000000000000000000000000000000000000000000000000000000000000000
0000000000000000000000000000000000000000000000000000000000000000000000
0000000000000000000000000000000000000000000000000000000000000000000000
0000000000000000000000000000000000000000000000000000000000000000000000
0000000000000000000000000000000000000000000000000000000000000000000000
0000000000000000000000000000000000000000000000000000000000000000000000
0000000000000000000000000000000000000000000000000000000000000000000000
0000000000000000000000000000000000000000000000000000000000000000000000
0000000000000000000000000000000000000000000000000000000000000000000000
0000000000000000000000000000000000000000000000000000000000000000000000
0000000000000000000000000000000000000000000000000000000000000000000000
0000000000000000000000000000000000000000000000000000000000000000000000
0000000000000000000000000000000000000000000000000000000000000000000000
0000000000000000000000000000000000000000000000000000000000000000000000
0000000000000000000000000000000000000000000000000000000000000000000000
0000000000000000000000000000000000000000000000000000000000000000000000
0000000000000000000000000000000000000000000000000000000000000000000000
0000000000000000000000000000000000000000000000000000000000000000000000
0000000000000000000000000000000000000000000000000000000000000000000000
0000000000000000000000000000000000000000000000000000000000000000000000
0000000000000000000000000000000000000000000000000000000000000000000000
0000000000000000000000000000000000000000000000000000000000000000000000
0000000000000000000000000000000000000000000000000000000000000000000000
0000000000000000000000000000000000000000000000000000000000000000000000
0000000000000000000000000000000000000000000000000000000000000000000000
0000000000000000000000000000000000000000000000000000000000000000000000
0000000000000000000000000000000000000000000000000000000000000000000000
0000000000000000000000000000000000000000000000000000000000000000000000
0000000000000000000000000000000000000000000000000000000000000000000000
0000000000000000000000000000000000000000000000000000000000000000000000
0000000000000000000000000000000000000000000000000000000000000000000000
0000000000000000000000000000000000000000000000000000000000000000000000
0000011111110000000000000000000000000000000000000000000000000000000100
0000000000111111111111111111111111111111110000000000000100000000000000
0000000000000000000000000001000000000000000000000000000000000000000000
0000000000000001000000000000000000000000000000000000000001000000000000
0000000000000000000000000000000000000000000001000000000000000000000000
0000000000000000010000000000000000000000000000000000000000000000000000
0000010000000000000000000000000000000000000000010000000000000000000000
0000000000000000000000000000000000010000000000000000000000000000000000
0000000110000000000000000000000000000000000000000000000000000000010000
0000000000000000000000000000000000000110000000000000000000000000000000
0000000000000000000000000100000000000000000000000000000000000000000110
0000000000001111111111111111111111111111111000000000000100000000000000
0000000000000000000000000001100000000000111111111111111000000000000000
0000000000000001000000000000000000000000000000000000000001100000000000
0000000000000000000000000000000000000000000001000000000000000000000000
0000000000000000011000000000000000000000000000000000000000000000000000
0000010000000000000000000000000000000000000000011000000000000000000000
0000000000000000000000000000000000110000000000000000000000000000000000
0000000110000000000000000000000000000000000000000000000000000000110000
0000000000000000000000000000000000000110000000000000000000000000000000
0000000000000000000000001100000000000000000000000000000000000000000110
0000000000000000000000000000000000000000000000000000001100000000000000
0000000000000000000000000001100000000000000000000000000000000000000000
0000000000000011000000000000000000000000000000000000000001100000000000
0000000000000000000000000000000000000000000011000000000000000000000000
0000000000000000011000000000000000000000000000000000000000000000000000
0000110000000000000000000000000000000000000000011000000000000000000000
0000000000000000000000000000000000110000000000000000000000000000000000
0000000110000000000000000000000000000000000000000000000000000000110000
0000000000000000000000000000000000000110000000000000000000110000000000
0000000000000000000000001100000000000000000000000000000000000000000000
0000000001000000001100000000011000000000000000000000001100000000000000
0000000000000000000000000000000000000011000000001100000000001100000000
0000000000000000000000000000000000000000000000000000000000000000000110
0000000011000000000001000000000000000000000000000000000000000000000000
0000000000000000000000000001000000000011000000000000100000000000000000
0000000000000000000000000000000000000000000000000000000010000000000001
0000000000001100000000000000000000000000000000000000000000000000000000
0000000000000001000000000000010000000000000100000000000000000000000000
0000000000000000000000000000000000000000000011000000000000010000000000
0000100000000000000000000000000000000000000000000000000000000000000000
0001100000000000000100000000000000110000000000000000000000000000000000
0000000000000000000000000000000001000000000000000100000000000000010000
0000000000000000000000000000000000000000000000000000000000000010000000
0000000001000000000000000010000000000000000000000000000000000000000000
0000000000000000000001000000000000000001000000000000000011000000000000
0000000000000000000000000000000000000000000000000011000000000000000001
0000000000000000010000000000000000000000000000000000000000000000000000
0000000001100000000000000000010000000000000000001000000000000000000000
0000000000000000000000000000000000000001000000000000000000010000000000
0000000011000000000000000000000000000000000000000000000000000000000010
0000000000000000000100000000000000001110000000000000000000000000000000
0000000000000000000000000011100000000000000000000100000000000000111000
0000000000000000000000000000000000000000000000000000000001111000000000
0000000001000000000000011000000000000000000000000000000000000000000000
0000000000000000000011110000000000000001000000000001100000000000000000
0000000000000000000000000000000000000000000000000000011110000000000001
0000000001110000000000000000000000000000000000000000000000000000000000
0000000000000000111000000000010000000111000000000000000000000000000000
0000000000000000000000000000000000000000000000001111000000010000011100
0000000000000000000000000000000000000000000000000000000000000000000000
0000000000011110000100001100000000000000000000000000000000000000000000
0000000000000000000000000000000000000000000011100100110000000000000000
0000000000000000000000000000000000000000000000000000000000000000000000
0000001111111000000000000000000000000000000000000000000000000000000000
0000000000000000000000000000000000000011111000000000000000000000000000
0000000000000000000000000000000000000000000000000000000000000000001111
0011100000000000000000000000000000000000000000000000000000000000000000
0000000000000000000000000110010000111100000000000000000000000000000000
0000000000000000000000000000000000000000000000000000011000010000000111
1000000000000000000000000000000000000000000000000000000000000000000000
0000000000011100000100000000001111000000000000000000000000000000000000
0000000000000000000000000000000000000001110000000100000000000011110000
0000000000000000000000000000000000000000000000000000000000000000000111
0000000001000000000000000111100000000000000000000000000000000000000000
0000000000000000000000000011000000000001000000000000000000110000000000
0000000000000000000000000000000000000000000000000000001100000000000001
0000000000000000001000000000000000000000000000000000000000000000000000
0000000000001110000000000000010000000000000000011000000000000000000000
0000000000000000000000000000000000000000111000000000000000010000000000
0000000100000000000000000000000000000000000000000000000000000000000001
1000000000000000000100000000000000001000000000000000000000000000000000
0000000000000000000000000000011000000000000000000100000000000000011000
0000000000000000000000000000000000000000000000000000000000000110000000
0000000001000000000000000100000000000000000000000000000000000000000000
0000000000000000000000110000000000000001000000000000001100000000000000
0000000000000000000000000000000000000000000000000000001100000000000001
0000000000000010000000000000000000000000000000000000000000000000000000
0000000000000001100000000000010000000000000100000000000000000000000000
0000000000000000000000000000000000000000000000011000000000010000000000
0011000000000000000000000000000000000000000000000000000000000000000000
0000000011000000000100000000000010000000000000000000000000000000000000
0000000000000000000000000000000000000001100000000100000000000100000000
0000000000000000000000000000000000000000000000000000000000000000000000
0000000001000000000011000000000000000000000000000000000000000000000000
0000000000000000000000000000000000000001000000000010000000000000000000
0000000000000000000000000000000000000000000000000000000000000000000001
0000000000000000000000000000000000000000000000000000000000000000000000
0000000000000000000000000000010000000000000000000000000000000000000000
0000000000000000000000000000000000000000000000000000000000010000000000
0000000000000000000000000000000000000000000000000000000000000000000000
0000000000000000000100000000000000000000000000000000000000000000000000
0000000000000000000000000000000000000000000000000100000000000000000000
0000000000000000000000000000000000000000000000000000000000000000000000
0000000000000000000000000000000000000000000000000000000000000000000000
0000000000000000000000000000000000000000000000000000000000000000000000
0000000000000000000000000000000000000000000000000000000000000000000000
0000000000000000000000000000000000000000000000000000000000000000000000
0000000000000000000000000000000000000000000000000000000000000000000000
0000000000000000000000000000000000000000000000000000000000000000000000
0000000000000000000000000000000000000000000000000000000000000000000000
0000000000000000000000000000000000000000000000000000000000000000000000
0000000000000000000000000000000000000000000000000000000000000000000000
0000000000000000000000000000000000000000000000000000000000000000000000
0000000000000000000000000000000000000000000000000000000000000000000000
0000000000000000000000000000000000000000000000000000000000000000000000
0000000000000000000000000000000000000000000000000000000000000000000000
0000000000000000000000000000000000000000000000000000000000000000000000
0000000000000000000000000000000000000000000000000000000000000000000000
0000000000000000000000000000000000000000000000000000000000000000000000
0000000000000000000000000000000000000000000000000000000000000000000000
0000000000000000000000000000000000000000000000000000000000000000000000
0000000000000000000000000000000000000000000000000000000000000000000000
0000000000000000000000000000000000000000000000000000000000000000000000
0000000000000000000000000000000000000000000000000000000000000000000000
0000000000000000000000000000000000000000000000000000000000000000000000
0000000000000000000000000000000000000000000000000000000000000000000000
0000000000000000000000000000000000000000000000000000000000000000000000
0000000000000000000000000000000000000000000000000000000000000000000000
0000000000000000000000000000000000000000000000000000000000000000000000
0000000000000000000000000000000000000000000000000000000000000000000000
0000000000000000000000000000000000000000000000000000000000000000000000
0000000000000000000000000000000000000000000000000000000000000000000000
0000000000000000000000000000000000000000000000000000000000000000000000
0000000000000000000000000000000000000000000000000000000000000000000000
0000000000000000000000000000000000000000000000000000000000000000000000
0000000000000000000000000000000000000000000000000000000000000000000000
0000000000000000000000000000000000000000000000000000000000000000000000
0000000000000000000000000000000000000000000000000000000000000000000000
0000000000000000000000000000000000000000000000000000000000000000000000
0000000000000000000000000000000000000000000000000000000000000000000000
0000000000000000000000000000000000000000000000000000000000000000000000