P1
# Created by GIMP version 2.10.34 PNM plug-in
100 100
0000000000000000000000000000000000000000000000000000000000000000000000
0000000000000000000000000000000000000000000000000000000000000000000000
0000000000000000000000000000000000000000000000000000000000000000000000
0000000000000000000000000000000000000000000000000000000000000000000000
0000000000000000000000000000000000000000000000000000000000000000000000
0000000000000000000000000000000000000000000000000000000000000000000000
0000000000000000000000000000000000000000000000000000000000000000000000
0000000000000000000000000000000000000000000000000000000000000000000000
0000000000000000000000000000000000000000000000000000000000000000000000
0000000000000000000000000000000000000000000000000000000000000000000000
0000000000000000000000000000000000000000000000000000000000000000000000
0000000000000000000000000000000000000000000000000000000000000000000000
0000000000000000000000000000000000000000000000000000000000000000000000
0000000000000000000000000000000000000000000000000000000000000000000000
0000000000000000000000000000000000000000000000000000000000000000000000
0000000000000000000000000000000000000000000000000000000000000000000000
0000000000000000000000000000000000000000000000000000000000000000000000
0000000000000000000000000000000000000000000000000000000000000000000000
0000000000000000000000000000000000000000000000000000000000000000000000
0000000000000000000000000000000000000000000000000000000000000000000000
0000000000000000000000000000000000000000000000000000000000000000000000
0000000000000000000000000000000000000000000000000000000000000000000000
0000000000000000000000000000000000000000000000000000000000000000000000
0000000000000000000000000000000000000000000000000000000000000000000000
0000000000000000000000000000000000000000000000000000000000000000000000
0000000000000000000000000000000000000000000000000000000000000000000000
0000000000000000000000000000000000000000000000000000000000000000000000
0000000000000000000000000000000000000000000000000000000000000000000000
0000000000000000000000000000000000000000000000000000000000000000000000
0000000000000001011111101000000000000000000000000000000000000000000000
0000000000000000000000000000000000000000011111111111111111100000000000
0000000000000000000000000000000000000000000000000000000000000000000011
1111111111111111111111000000000000000000000000000000000000000000000000
0000000000000000000000000011111111111111111111111111110000000000000000
0000000000000000000000000000000000000000000000000000001111111111111111
1111111111111111000000000000000000000000000000000011111111111111111111
1110000000000111111111111111111111111111111111100000000000000000000000
0000000000111111111111111111111110000000000111100000001111111111111111
1111111100000000000000000000000000000000111111111111111111111110000000
0111111000000011111111111111111111111100000000000001111111111110000000
1110001111111111111111100000000111111000000011111111111111111111111110
0000000000011111111111100000001110001111111111111111100000001111111000
0000111111111111111111111111110000000000011111111111100000001100000111
1111111111111000000011111110000000111111111111111111111111110000000000
0111111111111000000011000001111111111111111000000011111110000000111111
1111111111111111111100000000000111111111111000000011000001111111111111
1110000000011111100000001111111111111111111111111000000000000111111111
1110000000110000011111111111111110000000011111100000001111111111111111
1111111110000000000001111111111110000000110000011110000000000000000000
0111111000000011111111111111111111111110000000000001111111111110000000
1100000111100000000000000000000011111111111111111111111111111111111100
0000000000011111111111100000001100000111100000000000000000000001111111
1111111111111111111111111110000000000000011111111111100000001100000111
1000000000000000000000000111111111111111111111111111111000000000000000
0111111111111000000011000001111000000000000000000000000011111111111111
1111111111111100000000000000000111111111111000000011000001111000000000
0000000000000000001111111111111111111111110000000000000000000111111111
1110000000110000011110000000000000000000000000000001111111111111111110
0000000000000000000000000000000000000000111000111110000000000000000000
0000000000000001011111101000000000000000000000000000000000000000000000
1110001111100000000000000000000000000000000000000000000000000000000000
0000000000000000000000000000001111111111100000000000000000000000000000
0000000000000000000000000000000000000000000000000000000000001111111111
1000000000000000000000000000000000000000000000000000000000000000000000
0000000000000000000011111111111000000000000000000000000000000000000000
0000000000000000000000000000000000000000000000000011111111111000000000
0000000000000000000000000000000000000000000000000000000000000000000000
0000000000111111111110000000000000000000000000000000000000000000000000
0000000000000000000000000000000000000000111111111110000000000000000000
0000000000000000000000000000000000000000000000000000000000000000000000
0000000000000000000000000000000000000000000000000000001111111111110000
0000000000000000000000000000000000000000000000000000000000000000000000
0000000000000011111111111100000000000000000000000000000000000000000000
0000000000000000000000000000000000000000000011111111111100000000000000
0000000000000000000000000000000000000000000000000000000000000000000000
0000111111111111000000000000111111111111000000000000000000000000000000
0000000000000000000000000000000000111111111111000000000000111111111111
0000000000000000000000000000000000000000000000000000000000000000111100
1111110000000000001111100000110000000000000000000000000000000000000000
0000000000000000000000001111000000000000000000001111100000110000000000
0000000000000000000000000000000000000000000000000000001111000000000000
0000000011111000001100000000000000000000000000000000000000000000000000
0000000000000011110000000000000000000011111000001100000000000000000000
0000000000000000000000000000000000000000000011110000000000000000000011
1111111111000000000000000000000000000000000000000000000000000000000000
0000111100111111000000000000111111111111000000000000000000000000000000
0000000000000010111010000000000000111111111111000000000000111111111111
0000000000000000000000000000000000000000011111111111110000000000111111
1111110000000111111111111011110000000000000000000000000000000000000000
1111111111111111000000001111111111110000000111111111111011110000000000
0000000000000000000000000000111111111111111111100000001111111111110000
0001111111111110111100000000000000000000000000000000000001111111111111
1111111100000000000000000000000001111111111110111100000000000000000000
0000000000000000111111111111111111111110000000000000000000000001111111
1111101111000000000000000000000000000000000001111111111111111111111111
0000000000000000000000011110000111101111000000000000000000000000000000
0000111111111111111111111111111000000000000000000000011110000111100000
0000000000000000000000000000000000111111111111111111111111111000000000
0000000000000111100001111111110000000000000000000000000000000001111111
1111111111000000000000000000000000000000000111100001111111110000000000
0000000000000000000000011111111111111111000000000000000000000000000000
0001111000011111111100000000000000000000000000000000011111111111111111
0000000000000000000000000000000001111111111111111100000000000000000000
0000000000001111111111111111110000000000001000000000000000000001111111
1111111111000000000000000000000000000000001111111111111111110000000000
0010000000000000000000011111111111111111000000000000000000000000000000
0011111111111111111100000000000010000000000000000000011111111111000111
0000000000000000000000000000000011111111111111111100000000000010000000
0000000000000111111111110001110000000000000000000000000000000001111111
1111111111000000000000100000000000000000000000001111110001110000000000
0000000000000000000000011111111111111111000000000000000000000000000000
0000000011111100011100000000000000000000000000000000011111111111111111
0000000000000000000000000000000000000011111100011100000000000000000000
0000000000000111111111111111110000000000000000000000000000000000000011
1111000111000000000000000000000000000000000111111111111111110000000000
0000000000000000000000000000111111111111000000000000000000000000000000
0001111111111111111111111111111100000000000000000000000000111111111111
0000000000000000000000000000000001111111111111111111111111111100000000
0000000000000000001111111111110000000000000000000000000000000001111111
1111111111111111111111000000000000000000000000000000000000000000000000
0000000000000000000000011111111111111111111111111111000000000000000000
0000000000000000000000000000000000000000000000000000011111111111111111
1111111111110000000000000000000000000000000000000000000000000000000000
0000000000000111111111111111111111111111110000000000000000000000000000
0000000000000000000000000000000000000000000111111111111111111111111111
1100000000000000000000000000000000000000000000000000000000000000000000
0001111111111111111111111111111100000000000000000000000000000000000000
0000000000000000000000000000000001111111111111111111111111111100000000
0000000000000000000000000000000000000000000000000000000000000001111111
1111111111111111111111000000000000000000000000000000000000000000000000
0000000000000000000000011111111111111111111111111111000000000000000000
0000000000000000000000000000000000000000000000000000011111111111111111
1111111111110000000000000000000000000000000000000000000000000000000000
0000000000000111111111111111111111111111110000000000000000000000000000
0000000000000000000000000000000000000000000111111111111111111111111111
1100000000000000000000000000000000000000000000000000000000000000000000
0001111111111111111111111111111100000000000000000000000000000000000000
0000000000000000000000000000000001111111111111111111111111111100000000
0000000000000000000000000000000000000000000000000000000000000001111111
1111111111111111111111000000000000000000000000000000000000000000000000
0000000000000000000000011111111111111111111111111111000000000000000000
0000000000000000000000000000000000000000000000000000000000000000000000
000000000000000000000000000000000000000000000000000000000000