P1
# Created by GIMP version 2.10.34 PNM plug-in
100 133
0000000000000000000000000111111111111111111111111111111111111111110000
0000000000000000000000000000000000000000000000000000000111111111111111
1111111111111111111111111110000000000000000000000000000000000000000000
0000000000000001111111111111111111111111111111111111111100000000000000
0000000000000000000000000000000000000000000001111111111111111111111111
1111111111111111000000000000000000000000000000000000000000000000000000
0000011111111111111111111111111111111111111111100000000000000000000000
0000000000000000000000000000000000011111111111111111111111111111111111
1111110000000000000000000000000000000000000000000000000000000000011111
1111111111111111111111111111111111111000000000000000000000000000000000
0000000000000000000000000111111111111111111111111111111111111111110000
0000000000000000000000000000000000000000000000011111111111111111111111
1111111111111111111111111111111111111111111111111111000000000000000000
0000000111111111111111111111111111111111111111111111111111111111111111
1111111111110000000000000000000000000111111111111111111111111111111111
1111111111111111111111111111111111111111110000000000000000000000000111
1111111111111111111111111111111111111111111111111111111111111111111111
1100000000000000000000000001111111111111111111111111111111111111111111
1111111111111111111111111111111100000000000000000000000001111111111111
1111111111111111111111111111111111111111111111111111111111111100000000
0000000000000000011111111111111111111111111111111111111111111111111111
1111111111111111111111000000000000000000000000011111111111111111111111
1111111111111111111111111111111111111111111111111111000000000000000000
0000000111111111111111111111111111111111111111111111111111111111111111
1111111111110000000000000000000000000111111111111111111111111111111111
1111111100000000011111111000000000000000000000000000000000000000000111
1111111111111111111111100000000000000100000000011000001000000000000000
0000000000000000000000000001111111111111111111111111100000000000000100
0000000110000010000000000000000000000000000000000000000001111111111111
1111111111111000000000000001000000000110000010000000000000000000000000
0000000000000000011111111111111111111111111000000000000001000000000110
0000100000000000000000000000000000000000000000011111111111111111111111
1110000000000000010000000001100000100000000000000000000000000000000000
0000000111111111111111111111111110000000000000010000000001100000100000
0000000000000000000000000000000000001111111111111111111111111110000000
0000000100000000011000001000000000000000000000000000000000111111111000
0000011111111111111111100000000000000100000000011000001111111111111111
1100000000000000001111111100000000011111111100000000000000000000000100
0000000110000000000000000000001100000000000000001111111110000000011111
1111000000000000000000000001000000000110000000000000000000001100000000
0000000011111111000000000111111111000000000000000000000001000000000110
0000000000000000000011000000000000000011111111100000000111111111000000
0000000000000000010000000001100000000000000000000011000000000000000011
1111110000000001111111110000000000000000000000010000000001100000000000
0000000000110000000000000000111111110000000001111111110000000000000000
0000000100000000011000000000000000000000110000000000000000111111111000
0000011111111110101010000000000000000100000000011010010000000000000000
1100000000000000001111111100000000011111111111111111100000000000000111
1111111111111111000000000000001111111111000000001111111110000000011111
1111111111111000000000000000000000011111111111000000000000000100000011
0000000011111111000000000111111111111111111000000000000000000000001111
1111110000000000000000000000010000000011111111100000000111111111111111
1110000000000000000000000011111111110000000000000000000000010000000011
1111110000000001111111111111111110000000000000000000000011111111110000
0000000000000000000100000000111111111000000001111111111111111110000000
0000000000000000111111111100000000000000000000000100000000111111110000
0000011111111111111111100000000000000000000000111111111100000000000000
0000000001000000001111111110000000011111111111111111100000000000000010
1010111111111111010101010101010101010111000000001111111110000000011111
1111111111111000000000000001111111111111111111111111111111111111111111
0000000011111111111111111110101010101010101000000000000001111111111111
1111111111111111111111000000000000000011111111111111111100000000000000
0000000000000000011111111111111111111111111111111111000000000000000011
1111111111111111000000000000000000000000000000011111111111111111111111
1111111111110000000000000000111111111111111111000000000000000000000000
0000000011111111111111111111111111111111110000000000000000111111111111
1111110000000000000000000000000000000111111111111111111111111111111111
1100000000000000001111111111111111110000000000000000000000000000000111
1111111111111111111111111111111100000000000000001111111111111111110000
0000000000000000000000000001111111111111111111111111111111111100000000
0000000011111111111111111100000000000000000000000000000001111111111111
1111111111111111111111000000000000000000000000000000000100000000000000
0000000000000000011111111111111111111111111000000000000000000000000000
0000000000000001000000000000000000000000000000000000000000000000000000
0011000000000000000000000000000000000000000001000000000000000000000000
0000000000000000000000000000000010000000000000000000000000000000000000
0000010000000000000000000000000000000000000000000000000000000010000000
0000000000000000000000000000000000010000000000000000000000000000000000
0000000000000000000000100000000000000000000000000000000000000000010000
0000000000000000000000000000000000000000000000000000100000000000000000
0000000000000000000000000100000000000000000000000000000000000000000000
0000000000001000000000000000000000000000000000000000000111111111111111
1111111111111111111111111111111111111111111000000000000000000000000000
0000000111111111111111111111111111111111111111111111111110000000000000
0000000000000000000000000000000000000111111111111111110000000111111111
1111111111111111100000000000000000000000000000000000000000000000000111
1111111111111100000011111111111111111111111111000000000000000000000000
0000000000000000000000000001111111111111111100000001111111111111111111
1111111000000000000000000000000000000000000000000000000001111111111111
1111000000111111111111111111111111110000000000000000000000000000000000
0000000000000000011111111111111111000000011111111111111111111111110000
0000000000000000000000000000000000000000000000011111111111111111000000
1111111111111111111111111110000000000000000000000000000000000000000000
0000000111111111111111110000000111111111111111111111111100000000000000
0000000000000000000000000000010010101111111111111111110000000111111111
1111111111111111101001001001001001001001000000000000000000111111111111
1111111111111100000001111111111111111111000001111111111111111111111111
1000000000000000001111111111111111111111111100000011111111111111111110
0000001111111111111111111111111000000000000000001111111111111111111111
1111000000011111111111111111110000001111111111111111111111111000000000
0000000011111111111111111111111111000000111111111111111111100000001111
1111111111111111111110000000000000000011111111111111111111111111000000
0111111111111111111100000011111111111111111111111110000000000000000011
1111111111111111111111110000000111111111111111111000000011111111111111
1111111111100000000000000000111111111111111111111111110000000111111111
1111111111000000111111111111111111111111100000000001010101111111111111
1111111111111100000011111111111111111110000000111111111111111111111111
1100000000111111111111111111111111111111111100000001111111111111111110
0000001111111111111111111111111111111111111111111111111111111111111111
1111000000000000000000000000000000001111111111111111111111111111111111
1111111111111111111111111111111111000000000000000000000000000000001111
1111111111111111111111111111111111111111111111111111111111111111000000
0000000000000000000000000011111111111111111111111111111111111111111111
1111111111111111111111110000000000000000000000000000000011111111111111
1111111111111111111111111111111111111111111111111111110000000000000000
0000000000000000111111111111111111111111111111111111111111111111111111
1111111111111100000000000000000000000000000000111111111111111111111111
1111111111111111111111111111111111111111111111111111100000000000000111
1111111111111111111111111111111111111111111111111111111111111111111111
1111000000011000000000000001100000001111111111111111111111111111111111
1000000000000000111111111100000010000000001000000000000001000000000100
0001111111111100000000000000011000000000000000111111111100000011000000
0010000000000000011000000001000000111111111110000000000000011000000000
0000001111111111000000100000000110000000000000010000000001000000111111
1111000000000000000110000000000000001111111111000000100000000010000000
0000000110000000010000001111111111000000000000000110000000000000001111
1111110000001000000001100000000000000100000000010000001111111111000000
0000000001100000000000000011111111110000001000000000100000000000000100
0000000100000011111111110000000000000001100000000000000011111111110000
0010000000011000000000000001000000001100000011111111110000000000000001
1000000000000000111111111100000011111111111000000000000001111111111100
0000111111111100000000000000011000000000000000000000001100000000000000
0000000000000000000000000000000000110000000000000000000000011000000000
0000000000000011000000000000000000000000000000000000000000000000110000
0000000000000000000110000000000000000000000011000000000000000000000000
0000000000000000000000011100000000000000000000000110000000000000000000
0000110000000000000000000000000000000000000000000000001100000000000000
0000000001100000000000000000000000110000000000000000000000000000000000
0000000000000011000000000000000000000001100000000000000000000000110000
0000000000000000000000000000000000000000000011000000000000000000000001
1000000000000000000000001100000000000000000000000000000000000000000000
0000110000000000000000000000011000000000000000111111111100000000000000
0000000000000000000000000000000000111111111100000000000000011000000000
0000001110101010000000000000000000000000000000000000000000000000101010
1011000000000000000110000000000000001100000000000000000000000000000000
0000000000000000000000000000000011000000000000000110000000000000001100
0000000000000000000000000000000000000000000000000000000000000011000000
0000000001100000000000000011000000000000000000000000000000000000000000
0000000000000000000000110000000000000001100000000000000011000000000000
0000000000000000000000000000000000000000000000000000110000000000000001
1000000000000000110000000000000000000000000000000000000000000000000000
0000000000001100000000000000011000000000000010110000000000000000000000
0000000000000000000000000000000000000000001110000000000001011111111111
1111111100000000000000000000000111111111111111111100000000000000000000
0011111111111111111100000000000000000100000000000000000000000100000000
0000000010000000000000000000000010000000000000000000000000000000000100
0000000000000000000001000000000000000010000000000000000000000010000000
0000000000000000000000000001000000000000000000000001000000000000000011
0000000000000000000000100000000000000000000000000000000001000000000000
0000000000010000000000000000100000000000000000000000100000000000000000
0000000000000000010000000000000000000000010000000000000000110000000000
0000000000001000000000000000000000000000000000010000000000000000000000
0100000000000000001000000000000000000000001000000000000000000000000000
0000001100000000000000000000000100000000000000001100000000000000000000
0010000000000000000000000000000000000111111111111111111111111100000000
0000000011111111111111111111111110000000000000000000000000111111111111
1111111111111100000000000000000000000000000000111111111111111111111111
1100000000000000001111111111111111111111111000000000000000000000000000
0000000111111111111111111111111100000000000000001111111111111111111111
1110000000000000000000000000000000000111111111111111111111111100000000
0000000011111111111111111111111111000000000000000000000000000000000111
1111111111111111111111000000000000000011111111111111111111111110000000
0000000000000000000000000001111111111111111111111111000000000000000011
1111111111111111111111100000000000000000000000000000000001111111111111
1111111111110000000000000000111111111111111111111111100000000000000000
0000000000000000011111111111111111111111110000000000000000111111111111
1111111111111000000000000000000000000000000000011111111111111111111111
1100000000010101011111111111111111111111111000000000000000000000000000
0000001111111111111111111111111101010101111111111111111111111111111111
1110000000000000000000000000000000000111111111111111111111111111111111
1111111111111111111111111111111110000000000000000000000000000000000111
1111111111111111111111111111111111111111111111111111111111111110000000
0000000000000000000000000001111111111111111111111111111111111111111111
1111111111111111111111100000000000000000000000000000000001111111111111
1111111111111111111111111111111111111111111111111111100000000000000000
0000000000000000011111111111111111111111111111111111111111111111111111
1111111111111000000000000000000000000000000000011111111111111111111111
1111111111111111111111111111111111111111111000000000000000000000000000
0000000111111111111111111111111111111111111111111111111111111111111111
1110000000000000000000000000000000000111111111111111111111111111111111