P1
# Created by GIMP version 2.10.34 PNM plug-in
100 100
1111111100000000000000000000000000000000000000000000000000000000000000
0000000000000000000001111111111111111000000000000000000000000000000000
0000000000000000000000000000000000000000000000000001111111111111110000
0000000000000000000000000000000000000000000000000000000000000000000000
0000000000001111111111111000000000000000000000000000000000000000000000
0000000000000000000000000000000000000000000011111111110000000000000000
0000000000000000000000000000000000000000000000000000000000000000000000
0000001111111000000000000000000000000000000000000000000000000000000000
0000000000000000000000000000000000000111110000000000000000000000000000
0000000000000000000000000000000000000000000000000000000000000000000011
1000000000000000000000000000000000000000000000000000000000000000000000
0000000000000000000000000000010000000000000000000000000000000000000000
0000000000000000000000000000000000000000000000000000000000000000000000
0000000000000000000000000000000000000000000000000000000000000000000000
0000000000000000000000000000000000000000000000000000000000000000000000
0000000000000000000000000000000000000000000000000000000000000000000000
0000000000000000000000000000000000000000000000000000000000000000000000
0000000000000000000000000000000000000000000000000000000000000000000000
0000000000000000000000000000000000000000000000000000000000000000000000
0000000000000000000000000000000000000000000000000000000000000000000000
0000000000000000000000000000000000000000000000000000000000000000000000
0000000000000000000000000000000000000000000000000000000000000000000000
0000000000000000000000000000000000000000000000000000000000000000000000
0000000000000000000000000000000000000000000000000000000000000000000000
0000000000000000000000000000000000000000000000000000000000000000000000
0000000000000000000000000000000000000000000000000000000000000000000000
0000000000000000000000000000000000000000000000000000000000000000000000
0000000000000000000000000000000000000000000000000000000000000000000000
0000000000000000000000000000000000000000000000000000000000000000000000
0000000000000000000000000000000000000000000000000000000000000000000000
0000000000000000000000000000000000000000000000000000000000000000000000
0000000000000000000000000000000000000000000000000000000000000000000000
0000000000000000000000000000000000000000000000000000000000000000000000
0000000000000000000000000000000000000000000000000000000000000000000000
0000000000000000000000000000000000000000000000000000000000000000000000
0000000000000000000000000000000000000000000000000000000000000000000000
0000000000000000000000000000000000000000000000000000000000000000000000
0000000000000000000000000000000000000000000000000000000000000000000000
0000000000000000000000000000000000000000000000000000000000000000000000
0000000000000000111111110000000000000000000000000000000000000000000000
0000000000000000000000000000000000000000000011111111111110000000000000
0000000000000000000000000000000000000000000000000000000001111111110000
0111111111101111111000000000000000000000000000000000000000000000000000
0000000000000000110000000111000110011111001111111100000000000000000000
0000000000000000000000000000000000000000000000100000000001110101110111
1111111111100000000000000000000000000000000000000000000000000000000000
0000011000000000000111100011111111111111110000000000000000000000000000
0000000000000000000000000000000000011000000000000111111111111111111111
1110000000000000000000000000000000000000000000000000000000000000010000
0000000011111101111111111111111110000000000000000000000000000000000000
0000000000000000000000001100000000000011111111111111111111111111000000
0000000000000000000000000000000000000000000011100000001000000000000011
1111111111111111111111110000000000000000000000000000000000000000000000
0111111100000010000000000000111111111111111111111111100000000000000000
0000000000000000000000000000011110000100000110000000000000111111111111
1111111111111000000000000000000000000000000000000000000000110000000010
0000100000000000001110111111111111111111111000000000000000000000000000
0000000000000000001000000000100000100000000000001111111111111111111111
1110000000000000000000000000000000000000000000001000000000100000100000
0000000011010101111111111111111110000000000000000000000000000000000000
0000000010000000001100001100000000000011111111111111111111111100000000
0000000000000000000000000000000000000010000000001100000100000000000001
1011101111111111111101000000000000000000000000000000000000000000000010
0000000011000001000000000000011011111111111111111111000000000000000000
0000000000000000000000001100100000000011000000100000000000001111111111
1111111111100000000000000000000000000000000000000000011100100000000011
0000001000000000000001111111111111111110100000000000000000000000000000
0000000000000111001000000000110000001100000000000000111111111111111111
0000000000000000000000000000000000000000000001111000000000010000001100
0000000000000001111111111101110000000000000000000000000000000000000000
0000011000000000000100000001000000000000000000011111111111000000000000
0000000000000000000000000000000000000000000000000010000001000000000000
0000000000011100000000000000000000000000000000000000000000000000000000
0000000000010000010000000000000000000000000000000000000000000000000000
0000000000000000000000000000000000000000011101110000000000000000000000
0000000000000000000000000000000000000000000000000000000000000000000000
0011110000000000000000000000000000000000000000000000000000000000000000
0000000000000000000000000000000000000000000000000000000000000000000000
0000000000000000000000000000000000000000000000000000000000000000000000
0000000000000000000000000000000000000000000000000000000000000000000000
0000000000000000000000000000000000000000000000000000000000000000000000
0000000000000000000000000000000000000000000000000000000000000000000000
0000000000000000000000000000000000000000000000000000000000000000000000
0000000000000000000000000000000000000000000000000000000000000000000000
0000000000000000000000000000000000000000000000000000000000000000000000
0000000000000000000000000000000000000000000000000000000000000000000000
0000000000000000000000000000000000000000000000000000000000000000000000
0000000000000000000000000000000000000000000000000000000000000000000000
0000000000000000000000000000000000000000000000000000000000000000000000
0000000000000000000000000000000000000000000000000000000000000000000000
0000000000000000000000000000000000000000000000000000000000000000000000
0000000000000000000000000000000000000000000000000000000000000000000000
0000000000000000000000000000000000000000000000000000000000000000000000
0000000000000000000000000000000000000000000000000000000000000000000000
0000000000000000000000000000000000000000000000000000000000000000000000
0000000000000000000000000000000000000000000000000000000000000000000000
0000000000000000000000000000000000000000000000000000000000000000000000
0000000000000000000000000000000000000000000000000000000000000000000000
0000000000000000000000000000000000000000000000000000000000000000000000
0000000000000000000000000000000000000000000000000000000000000000000000
0000000000000000000000000000000000000000000000000000000000000000000000
0000000000000000000000000000000000000000000000000000000000000000000000
0000000000000000000000000000000000000000000000000000000000000000000000
0000000000000000000000000000000000000000000000000000000000000000000000
0000000000000000000000000000000000000000000000000000000000000000000000
0000000000000000000000000000000000000000000000000000000000000000000000
0000000000000000000000000000000000000000000000000000000000000000000000
0000000000000000000000000000000000000000000000000000000000000000000000
0000000000000000000000000000000000000000000000000000000000000000000000
0000000000000000000000000000000000000000000000000000000000000000000000
0000000000000000000000000000000000000000000000000000000000000000000000
0000000000000000000000000000000000000000000000000000000000000000000000
0000000000000000000000000000000000000000000000000000000000000000000000
0000000000000000000000000000000000000000000000000000000000000000000000
0000000000000000000000000000000000000000000000000000000000000000000000
0000000000000000000000000000000000000000000000000000000000000000000000
0000000000000000000000000000000000000000000000000000000000000000000000
0000000000000000000000000000000000000000000000000000000000000000000000
0000000000000000000000000000000000000000000000000000000000000000000000
0000000000000000000000000000000000000000000000000000000000000000000000
0000000000000000000000000000000000000000000000000000000000000000000000
0000000000000000000000000000000000000000000000000000000000000000000000
0000000000000000000000000000000000000000000000000000000000000000000000
0000000000000000000000000000000000000000000000000000000000000000000000
0000000000000000000000000000000000000000000000000000000000000000000000
0000000000000000000000000000000000000000000000000000000000000000000000
0000000000000000000000000000000000000000000000000000000000000000000000
0000000000000000000000000000000000000000000000000000000000000000000000
0000000000000000000000000000000000000000000000000000000000000000000000
0000000000000000000000000000000000000000000000000000000000000000000000
0000000000000000000000000000000000000000000000000000000000000000000000
0000000000000000000000000000000000000000000000000000000000000000000000
0000000000000000000000000000000000000000000000000000000000000000000000
0000000000000000000000000000000000000000000000000000000000000000000000
0000000000000000000100000000000000000000000000000000000000000000000000
0000000000000000000000000000000000000000000000001110000000000000000000
0000000000000000000000000000000000000000000000000000000000000000000000
0000000111110000000000000000000000000000000000000000000000000000000000
0000000000000000000000000000000000011111111000000000000000000000000000
0000000000000000000000000000000000000000000000000000000000000000111111
1111000000000000000000000000000000000000000000000000000000000000000000
0000000000000000000000111111111111100000000000000000000000000000000000
000000000000000000000000000000000000000000000000000111111111